<?xml version="1.0" encoding="UTF-8"?>
<svg width="201px" height="202px" viewBox="0 0 201 202" version="1.1" xmlns="http://www.w3.org/2000/svg" xmlns:xlink="http://www.w3.org/1999/xlink">
    <title>Group 12</title>
    <defs>
        <path d="M34.6774194,69.3548387 C40.9230843,69.3548387 46.7026535,67.7934219 52.016129,64.6705905 C57.3296046,61.5477591 61.5477591,57.3296046 64.6705905,52.016129 C67.7934219,46.7026535 69.3548387,40.9230843 69.3548387,34.6774194 C69.3548387,28.4317544 67.7934219,22.6521852 64.6705905,17.3387097 C61.5477591,12.0252341 57.3296046,7.80707959 52.016129,4.68424818 C46.7026535,1.56141677 40.9230843,0 34.6774194,0 C28.4317544,0 22.6521852,1.56141677 17.3387097,4.68424818 C12.0252341,7.80707959 7.80707959,12.0252341 4.68424818,17.3387097 C1.56141677,22.6521852 0,28.4317544 0,34.6774194 C0,40.9230843 1.56141677,46.7026535 4.68424818,52.016129 C7.80707959,57.3296046 12.0252341,61.5477591 17.3387097,64.6705905 C22.6521852,67.7934219 28.4317544,69.3548387 34.6774194,69.3548387 Z M43.9060874,49.219563 C43.4399938,49.3127825 43.0205089,49.219563 42.6476327,48.9399063 L42.6476327,48.9399063 L30.3427419,39.9908949 C29.8766483,39.6180187 29.6436004,39.1519251 29.6436004,38.5926119 L29.6436004,38.5926119 L29.6436004,15.1014568 C29.6436004,14.6353632 29.8067341,14.2391816 30.1329995,13.9129162 C30.4592648,13.5866509 30.8554464,13.4235172 31.3215401,13.4235172 L31.3215401,13.4235172 L38.0332986,13.4235172 C38.4993923,13.4235172 38.8955739,13.5866509 39.2218392,13.9129162 C39.5481046,14.2391816 39.7112383,14.6353632 39.7112383,15.1014568 L39.7112383,15.1014568 L39.7112383,34.3977627 L48.6602497,40.8298647 C49.0331259,41.1095213 49.2428684,41.4823975 49.2894771,41.9484912 C49.3360858,42.4145848 49.219563,42.8340697 48.9399063,43.2069459 L48.9399063,43.2069459 L45.0247138,48.5204214 C44.7450572,48.8932976 44.372181,49.1263434 43.9060874,49.219563 Z" id="path-1"></path>
        <filter x="-4.3%" y="-4.3%" width="108.7%" height="108.7%" filterUnits="objectBoundingBox" id="filter-2">
            <feGaussianBlur stdDeviation="1.5" in="SourceAlpha" result="shadowBlurInner1"></feGaussianBlur>
            <feOffset dx="2" dy="3" in="shadowBlurInner1" result="shadowOffsetInner1"></feOffset>
            <feComposite in="shadowOffsetInner1" in2="SourceAlpha" operator="arithmetic" k2="-1" k3="1" result="shadowInnerInner1"></feComposite>
            <feColorMatrix values="0 0 0 0 0   0 0 0 0 0   0 0 0 0 0  0 0 0 0.5 0" type="matrix" in="shadowInnerInner1"></feColorMatrix>
        </filter>
        <path d="M124.211552,131.628016 C126.131674,131.628016 127.76378,130.955972 129.107866,129.611887 C130.451951,128.267802 131.123995,126.635696 131.123995,124.715574 L131.123995,74.0243294 C131.123995,72.1042073 130.451951,70.4721014 129.107866,69.1280161 C127.76378,67.7839308 126.131674,67.111887 124.211552,67.111887 L73.520308,67.111887 C71.6001858,67.111887 69.9680799,67.7839308 68.6239946,69.1280161 C67.2799094,70.4721014 66.6078656,72.1042073 66.6078656,74.0243294 L66.6078656,124.715574 C66.6078656,126.635696 67.2799094,128.267802 68.6239946,129.611887 C69.9680799,130.955972 71.6001858,131.628016 73.520308,131.628016 L124.211552,131.628016 Z M93.1055615,118.235159 C92.4335177,118.235159 91.9054854,117.995143 91.5214601,117.515113 L76.5445016,102.538154 C76.0644716,102.058124 75.8244555,101.506088 75.8244555,100.882048 C75.8244555,100.258009 76.0644716,99.7059723 76.5445016,99.2259423 L79.7127043,96.0577396 C80.1927343,95.5777096 80.7447711,95.3376935 81.3688103,95.3376935 C81.9928495,95.3376935 82.5448863,95.5777096 83.0249163,96.0577396 L93.1055615,106.138385 L114.706944,84.5370023 C115.186974,84.0569723 115.739011,83.8169562 116.36305,83.8169562 C116.987089,83.8169562 117.539126,84.0569723 118.019156,84.5370023 L121.187359,87.705205 C121.667389,88.185235 121.907405,88.7372718 121.907405,89.361311 C121.907405,89.9853502 121.667389,90.537387 121.187359,91.017417 L94.6896628,117.515113 C94.3056375,117.995143 93.7776052,118.235159 93.1055615,118.235159 Z" id="path-3"></path>
        <filter x="-4.7%" y="-4.7%" width="109.3%" height="109.3%" filterUnits="objectBoundingBox" id="filter-4">
            <feGaussianBlur stdDeviation="1.5" in="SourceAlpha" result="shadowBlurInner1"></feGaussianBlur>
            <feOffset dx="2" dy="3" in="shadowBlurInner1" result="shadowOffsetInner1"></feOffset>
            <feComposite in="shadowOffsetInner1" in2="SourceAlpha" operator="arithmetic" k2="-1" k3="1" result="shadowInnerInner1"></feComposite>
            <feColorMatrix values="0 0 0 0 0   0 0 0 0 0   0 0 0 0 0  0 0 0 0.5 0" type="matrix" in="shadowInnerInner1"></feColorMatrix>
        </filter>
        <path d="M128.225806,200.176403 C132.384062,200.176403 136.447813,199.204341 140.417058,197.260217 C143.157726,195.856126 145.756637,194.074012 148.213788,191.913874 C153.033585,193.966007 158.089647,194.992071 163.381973,194.992071 C169.997381,194.992071 176.069379,193.479975 181.59797,190.455781 C187.126561,187.431587 191.521081,183.354327 194.781532,178.223998 C198.041983,173.093669 199.672209,167.450309 199.672209,161.293915 C199.672209,155.137521 198.041983,149.49416 194.781532,144.363831 C191.521081,139.233502 187.126561,135.156243 181.59797,132.132048 C176.069379,129.107854 169.997381,127.595758 163.381973,127.595758 C156.766564,127.595758 150.694566,129.107854 145.165975,132.132048 C139.637385,135.156243 135.242864,139.233502 131.982413,144.363831 C128.721962,149.49416 127.091737,155.137521 127.091737,161.293915 C127.091737,165.290171 127.80053,169.070412 129.218118,172.634641 C130.635705,176.198869 132.620327,179.493079 135.171984,182.517273 C134.415939,185.865488 132.903845,189.429716 130.635705,193.209957 C129.312624,195.370095 128.225806,196.936196 127.375254,197.908258 C127.091737,198.340286 127.044484,198.826318 127.233495,199.366351 C127.422506,199.906385 127.753278,200.176403 128.225806,200.176403 Z M172.454532,157.891697 C171.414968,157.891697 170.517162,157.459668 169.761116,156.595614 C169.00507,155.73156 168.627046,154.705492 168.627046,153.517417 C168.627046,152.329342 169.00507,151.303274 169.761116,150.43922 C170.517162,149.575166 171.414968,149.143137 172.454532,149.143137 C173.494095,149.143137 174.391902,149.575166 175.147948,150.43922 C175.903993,151.303274 176.282017,152.329342 176.282017,153.517417 C176.282017,154.705492 175.903993,155.73156 175.147948,156.595614 C174.391902,157.459668 173.494095,157.891697 172.454532,157.891697 Z M154.309414,157.891697 C153.26985,157.891697 152.372044,157.459668 151.615998,156.595614 C150.859952,155.73156 150.481928,154.705492 150.481928,153.517417 C150.481928,152.329342 150.859952,151.303274 151.615998,150.43922 C152.372044,149.575166 153.26985,149.143137 154.309414,149.143137 C155.348977,149.143137 156.246784,149.575166 157.00283,150.43922 C157.758875,151.303274 158.136899,152.329342 158.136899,153.517417 C158.136899,154.705492 157.758875,155.73156 157.00283,156.595614 C156.246784,157.459668 155.348977,157.891697 154.309414,157.891697 Z M163.381973,179.439076 C160.641304,179.439076 158.018768,178.791035 155.514363,177.494952 C153.009958,176.198869 150.907204,174.362752 149.206099,171.986599 C148.733571,171.446565 148.544558,170.825524 148.639064,170.12348 C148.733571,169.421436 149.017088,168.827397 149.489617,168.341366 C149.962145,167.855335 150.505555,167.639322 151.119842,167.693324 C151.734129,167.747327 152.230285,168.044348 152.608309,168.584381 C153.93139,170.420498 155.53799,171.824589 157.428106,172.796651 C159.318222,173.768713 161.302844,174.254744 163.381973,174.254744 C165.461101,174.254744 167.445724,173.768713 169.335839,172.796651 C171.225955,171.824589 172.832556,170.420498 174.155636,168.584381 C174.53366,168.044348 175.029816,167.747327 175.644103,167.693324 C176.25839,167.639322 176.8018,167.855335 177.274329,168.341366 C177.746857,168.827397 178.006749,169.421436 178.054002,170.12348 C178.101254,170.825524 177.93587,171.446565 177.557846,171.986599 C175.856741,174.362752 173.753987,176.198869 171.249582,177.494952 C168.745177,178.791035 166.122641,179.439076 163.381973,179.439076 Z" id="path-5"></path>
        <filter x="-4.1%" y="-4.1%" width="108.3%" height="108.3%" filterUnits="objectBoundingBox" id="filter-6">
            <feGaussianBlur stdDeviation="1.5" in="SourceAlpha" result="shadowBlurInner1"></feGaussianBlur>
            <feOffset dx="2" dy="3" in="shadowBlurInner1" result="shadowOffsetInner1"></feOffset>
            <feComposite in="shadowOffsetInner1" in2="SourceAlpha" operator="arithmetic" k2="-1" k3="1" result="shadowInnerInner1"></feComposite>
            <feColorMatrix values="0 0 0 0 0   0 0 0 0 0   0 0 0 0 0  0 0 0 0.5 0" type="matrix" in="shadowInnerInner1"></feColorMatrix>
        </filter>
    </defs>
    <g id="Single-page" stroke="none" stroke-width="1" fill="none" fill-rule="evenodd">
        <g id="01-Improve---acop11---single-page-04---desktop-large" transform="translate(-1101.000000, -3121.000000)" fill-rule="nonzero">
            <g id="Group-12" transform="translate(1101.406247, 3121.656434)">
                <g id="">
                    <use fill-opacity="0.6" fill="#FFFFFF" xlink:href="#path-1"></use>
                    <use fill="black" fill-opacity="1" filter="url(#filter-2)" xlink:href="#path-1"></use>
                </g>
                <g id="">
                    <use fill-opacity="0.8" fill="#FFFFFF" xlink:href="#path-3"></use>
                    <use fill="black" fill-opacity="1" filter="url(#filter-4)" xlink:href="#path-3"></use>
                </g>
                <g id="">
                    <use fill="#FFFFFF" xlink:href="#path-5"></use>
                    <use fill="black" fill-opacity="1" filter="url(#filter-6)" xlink:href="#path-5"></use>
                </g>
            </g>
        </g>
    </g>
</svg>