<?xml version="1.0" encoding="UTF-8"?>
<svg width="220px" height="132px" viewBox="0 0 220 132" version="1.1" xmlns="http://www.w3.org/2000/svg" xmlns:xlink="http://www.w3.org/1999/xlink">
    <title>Group 3</title>
    <defs>
        <path d="M220,27.6198094 L220,93.9211793 C220,96.9757975 217.537082,99.4520548 214.498918,99.4520548 L180.942319,99.4520548 C180.033164,94.3096448 177.326143,89.6631686 173.309568,86.3507935 L123.249724,45.4914509 L132.223364,37.2297056 C134.386048,35.1512959 134.50018,31.7162035 132.480274,29.4973168 C130.460368,27.2784302 127.047052,27.0893352 124.796903,29.0716643 L115.513828,37.6099533 L97.2914941,54.3754196 C97.2571123,54.4099876 97.1883488,54.4099876 97.153967,54.4445555 C89.8994154,60.9779022 81.166448,57.1408573 77.8657989,53.5112203 C72.7607268,47.9605845 73.0836079,39.3037891 78.5878159,34.1531561 C78.6221977,34.1185881 78.6565795,34.0494522 78.6909612,34.0148842 L112.488233,2.90370963 C114.515906,1.03686163 117.165305,0 119.914693,0 L149.448626,0 C152.365121,0.002745529 155.160739,1.17182215 157.218904,3.24938935 L175.991346,22.1235019 L214.498918,22.1235019 C217.523705,22.1234425 219.981095,24.5786995 220,27.6198094 Z" id="path-1"></path>
        <filter x="-2.4%" y="-3.5%" width="104.8%" height="107.0%" filterUnits="objectBoundingBox" id="filter-2">
            <feGaussianBlur stdDeviation="2" in="SourceAlpha" result="shadowBlurInner1"></feGaussianBlur>
            <feOffset dx="1" dy="3" in="shadowBlurInner1" result="shadowOffsetInner1"></feOffset>
            <feComposite in="shadowOffsetInner1" in2="SourceAlpha" operator="arithmetic" k2="-1" k3="1" result="shadowInnerInner1"></feComposite>
            <feColorMatrix values="0 0 0 0 0   0 0 0 0 0   0 0 0 0 0  0 0 0 0.5 0" type="matrix" in="shadowInnerInner1"></feColorMatrix>
        </filter>
        <path d="M0,93.4325707 L0,27.4902746 C0,24.4537827 2.4465624,21.9922197 5.46455007,21.9922197 L43.7164005,21.9922197 L62.3983311,3.23010726 C64.4428282,1.16486848 67.2198807,0.00272923686 70.1170081,0 L98.737589,0 L70.8000768,25.7377696 C60.7972552,34.9723336 60.1245854,50.6155093 69.2973256,60.6847811 C74.3861878,66.2859245 90.1650761,74.945361 104.031372,62.1967462 L114.277403,52.7469643 L165.268486,94.3947303 C169.955074,98.2381833 170.658396,105.176083 166.839544,109.892373 L163.594968,113.912825 C159.793498,118.627593 152.913646,119.350561 148.225921,115.527879 L146.381635,114.015914 L135.657455,127.279971 C133.534308,129.910691 130.458888,131.58439 127.108561,131.932434 C123.758234,132.280478 120.407805,131.274319 117.795207,129.135565 L111.681742,123.809324 L111.613435,123.87805 C104.000359,133.296776 90.2417885,134.727212 80.875341,127.073794 L49.9664797,98.9306256 L5.46455007,98.9306256 C2.4465624,98.9306256 0,96.4690626 0,93.4325707 Z" id="path-3"></path>
        <filter x="-2.1%" y="-2.7%" width="104.1%" height="105.3%" filterUnits="objectBoundingBox" id="filter-4">
            <feGaussianBlur stdDeviation="2" in="SourceAlpha" result="shadowBlurInner1"></feGaussianBlur>
            <feOffset dx="1" dy="3" in="shadowBlurInner1" result="shadowOffsetInner1"></feOffset>
            <feComposite in="shadowOffsetInner1" in2="SourceAlpha" operator="arithmetic" k2="-1" k3="1" result="shadowInnerInner1"></feComposite>
            <feColorMatrix values="0 0 0 0 0   0 0 0 0 0   0 0 0 0 0  0 0 0 0.5 0" type="matrix" in="shadowInnerInner1"></feColorMatrix>
        </filter>
    </defs>
    <g id="Single-page" stroke="none" stroke-width="1" fill="none" fill-rule="evenodd">
        <g id="01-Improve---acop11---single-page-04---desktop-large" transform="translate(-1096.000000, -6687.000000)" fill-rule="nonzero">
            <g id="Group-3" transform="translate(1096.000000, 6687.000000)">
                <g id="Path" opacity="0.596847098">
                    <use fill="#FFFFFF" xlink:href="#path-1"></use>
                    <use fill="black" fill-opacity="1" filter="url(#filter-2)" xlink:href="#path-1"></use>
                </g>
                <g id="Path">
                    <use fill="#FFFFFF" xlink:href="#path-3"></use>
                    <use fill="black" fill-opacity="1" filter="url(#filter-4)" xlink:href="#path-3"></use>
                </g>
            </g>
        </g>
    </g>
</svg>