<?xml version="1.0" encoding="UTF-8"?>
<svg width="37px" height="38px" viewBox="0 0 37 38" version="1.1" xmlns="http://www.w3.org/2000/svg" xmlns:xlink="http://www.w3.org/1999/xlink">
    <title>pfeil</title>
    <g id="Single-page" stroke="none" stroke-width="1" fill="none" fill-rule="evenodd">
        <g id="01-Improve---acop11---single-page-04---desktop-large" transform="translate(-120.000000, -752.000000)" fill="#8DD033" fill-rule="nonzero">
            <path d="M138.499956,789.624994 C138.773393,789.624994 139.019486,789.542963 139.238236,789.378901 L139.238236,789.378901 L156.382726,772.152379 C156.546788,771.988317 156.628819,771.769567 156.628819,771.496131 C156.628819,771.222694 156.546788,770.976601 156.382726,770.757851 L156.382726,770.757851 L154.742105,769.11723 C154.578043,768.953168 154.359293,768.871137 154.085857,768.871137 C153.81242,768.871137 153.566327,768.953168 153.347577,769.11723 L153.347577,769.11723 L140.632764,781.832044 L140.632764,753.859454 C140.632764,753.586018 140.53706,753.353595 140.345655,753.16219 C140.15425,752.970785 139.921827,752.875081 139.648391,752.875081 L139.648391,752.875081 L137.351521,752.875081 C137.078085,752.875081 136.845663,752.970785 136.654257,753.16219 C136.462852,753.353595 136.367149,753.586018 136.367149,753.859454 L136.367149,753.859454 L136.367149,781.832044 L123.652335,769.11723 C123.433585,768.953168 123.187492,768.871137 122.914056,768.871137 C122.640619,768.871137 122.42187,768.953168 122.257807,769.11723 L122.257807,769.11723 L120.617186,770.757851 C120.453124,770.976601 120.371093,771.222694 120.371093,771.496131 C120.371093,771.769567 120.453124,771.988317 120.617186,772.152379 L120.617186,772.152379 L137.843708,789.29687 C138.00777,789.515619 138.22652,789.624994 138.499956,789.624994 Z" id="pfeil"></path>
        </g>
    </g>
</svg>