<?xml version="1.0" encoding="UTF-8"?>
<svg width="123px" height="123px" viewBox="0 0 123 123" version="1.1" xmlns="http://www.w3.org/2000/svg" xmlns:xlink="http://www.w3.org/1999/xlink">
    <title>Group 18</title>
    <defs>
        <radialGradient cx="50%" cy="50%" fx="50%" fy="50%" r="50%" id="radialGradient-1">
            <stop stop-color="#000000" offset="2%"></stop>
            <stop stop-color="#FFFFFF" offset="100%"></stop>
        </radialGradient>
        <linearGradient x1="85.3483131%" y1="85.3785009%" x2="14.6531451%" y2="14.6833321%" id="linearGradient-2">
            <stop stop-color="#C5CBCC" offset="0%"></stop>
            <stop stop-color="#D7DBDC" offset="9%"></stop>
            <stop stop-color="#E9EBEC" offset="21%"></stop>
            <stop stop-color="#F6F7F7" offset="36%"></stop>
            <stop stop-color="#FDFDFD" offset="56%"></stop>
            <stop stop-color="#FFFFFF" offset="100%"></stop>
        </linearGradient>
        <linearGradient x1="85.3670473%" y1="85.3996737%" x2="14.6492659%" y2="14.6982055%" id="linearGradient-3">
            <stop stop-color="#FFFFFF" offset="0%"></stop>
            <stop stop-color="#FDFDFD" offset="50%"></stop>
            <stop stop-color="#F6F7F7" offset="73%"></stop>
            <stop stop-color="#E9ECEC" offset="89%"></stop>
            <stop stop-color="#DCE0E1" offset="100%"></stop>
        </linearGradient>
        <path d="M85.7342493,78.6 C86.0858104,78.6 86.3846389,78.4769529 86.6307315,78.2308603 C86.8768241,77.9847676 86.9998713,77.6859391 86.9998713,77.334378 L86.9998713,77.334378 L86.9998713,73.1156381 C86.9998713,72.764077 86.8768241,72.4652485 86.6307315,72.2191558 C86.3846389,71.9730632 86.0858104,71.8500161 85.7342493,71.8500161 L85.7342493,71.8500161 L39.7499839,71.8500161 L39.7499839,39.3657185 C39.7499839,39.0141574 39.6269368,38.7153289 39.3808442,38.4692363 C39.1347515,38.2231437 38.835923,38.1000966 38.4843619,38.1000966 L38.4843619,38.1000966 L34.265622,38.1000966 C33.9140609,38.1000966 33.6152324,38.2231437 33.3691397,38.4692363 C33.1230471,38.7153289 33,39.0141574 33,39.3657185 L33,39.3657185 L33,77.334378 C33,77.6859391 33.1230471,77.9847676 33.3691397,78.2308603 C33.6152324,78.4769529 33.9140609,78.6 34.265622,78.6 L34.265622,78.6 L85.7342493,78.6 Z M83.6248793,68.4750241 L74.1327144,48.6469464 C73.9920903,48.2953853 73.7284191,48.0668697 73.3417007,47.9614012 C72.9549823,47.8559327 72.6209998,47.9438226 72.33975,48.2250724 L72.33975,48.2250724 L72.33975,48.1196039 L63.3749276,54.1313083 L54.4101052,42.1078995 C54.1288553,41.7563384 53.7597156,41.5981356 53.302686,41.6332913 C52.8456563,41.6684469 52.5116722,41.8618069 52.3007352,42.213368 L52.3007352,42.213368 L43.1249759,57.5063003 L43.1249759,68.4750241 L83.6248793,68.4750241 Z" id="path-4"></path>
        <filter x="-3.7%" y="-4.9%" width="107.4%" height="109.9%" filterUnits="objectBoundingBox" id="filter-5">
            <feGaussianBlur stdDeviation="1.5" in="SourceAlpha" result="shadowBlurInner1"></feGaussianBlur>
            <feOffset dx="0" dy="1" in="shadowBlurInner1" result="shadowOffsetInner1"></feOffset>
            <feComposite in="shadowOffsetInner1" in2="SourceAlpha" operator="arithmetic" k2="-1" k3="1" result="shadowInnerInner1"></feComposite>
            <feColorMatrix values="0 0 0 0 0   0 0 0 0 0   0 0 0 0 0  0 0 0 0.5 0" type="matrix" in="shadowInnerInner1"></feColorMatrix>
        </filter>
    </defs>
    <g id="Single-page" stroke="none" stroke-width="1" fill="none" fill-rule="evenodd">
        <g id="01-Improve---acop11---single-page-04---desktop-large" transform="translate(-120.000000, -5332.000000)" fill-rule="nonzero">
            <g id="Layer_3" transform="translate(120.000000, 5332.000000)">
                <path d="M117.135002,58.685 C117.126716,90.8177342 91.0727374,116.860521 58.9400026,116.855 C26.8072677,116.849477 0.762241604,90.7977365 0.765002148,58.6650013 C0.767762692,26.5322661 26.8172647,0.485 58.95,0.485 C74.3842207,0.485 89.1860768,6.61724627 100.098312,17.5322949 C111.010548,28.4473435 117.138979,43.2507798 117.135002,58.685 Z" id="Path" fill="#00BDED"></path>
                <circle id="Oval" fill="url(#radialGradient-1)" style="mix-blend-mode: multiply;" cx="65.355" cy="65.675" r="56.865"></circle>
                <path d="M106.665002,58.985 C106.671067,78.1578743 95.1262757,95.4462373 77.4145907,102.787583 C59.7029058,110.128929 39.3128609,106.07729 25.7534455,92.5221651 C12.1940301,78.9670407 8.13593729,58.5782792 15.4716769,40.8642716 C22.8074166,23.1502639 40.0921248,11.5999976 59.265,11.5999976 C71.8348821,11.5960209 83.8912962,16.5865982 92.7809519,25.4734408 C101.670608,34.3602834 106.665002,46.4151173 106.665002,58.985 Z" id="Path" fill="url(#linearGradient-2)"></path>
                <path d="M105.24,58.985 C105.24,84.3762914 84.6562914,104.96 59.265,104.96 C33.8737086,104.96 13.29,84.3762914 13.29,58.985 C13.29,33.5937086 33.8737086,13.01 59.265,13.01 C84.6562914,13.01 105.24,33.5937086 105.24,58.985 L105.24,58.985 Z" id="Path" fill="url(#linearGradient-3)"></path>
                <g id="">
                    <use fill="#00BDED" xlink:href="#path-4"></use>
                    <use fill="black" fill-opacity="1" filter="url(#filter-5)" xlink:href="#path-4"></use>
                </g>
            </g>
        </g>
    </g>
</svg>