<?xml version="1.0" encoding="UTF-8"?>
<svg width="123px" height="123px" viewBox="0 0 123 123" version="1.1" xmlns="http://www.w3.org/2000/svg" xmlns:xlink="http://www.w3.org/1999/xlink">
    <title>Group 16</title>
    <defs>
        <radialGradient cx="50%" cy="50%" fx="50%" fy="50%" r="50%" id="radialGradient-1">
            <stop stop-color="#000000" offset="2%"></stop>
            <stop stop-color="#FFFFFF" offset="100%"></stop>
        </radialGradient>
        <linearGradient x1="85.3483131%" y1="85.3785009%" x2="14.6531451%" y2="14.6833321%" id="linearGradient-2">
            <stop stop-color="#C5CBCC" offset="0%"></stop>
            <stop stop-color="#D7DBDC" offset="9%"></stop>
            <stop stop-color="#E9EBEC" offset="21%"></stop>
            <stop stop-color="#F6F7F7" offset="36%"></stop>
            <stop stop-color="#FDFDFD" offset="56%"></stop>
            <stop stop-color="#FFFFFF" offset="100%"></stop>
        </linearGradient>
        <linearGradient x1="85.3670473%" y1="85.3996737%" x2="14.6492659%" y2="14.6982055%" id="linearGradient-3">
            <stop stop-color="#FFFFFF" offset="0%"></stop>
            <stop stop-color="#FDFDFD" offset="50%"></stop>
            <stop stop-color="#F6F7F7" offset="73%"></stop>
            <stop stop-color="#E9ECEC" offset="89%"></stop>
            <stop stop-color="#DCE0E1" offset="100%"></stop>
        </linearGradient>
        <path d="M63.1666667,47.28125 L63.1666667,34 L43.375,34 C42.0588542,34 41,35.0449219 41,36.34375 L41,81.65625 C41,82.9550781 42.0588542,84 43.375,84 L76.625,84 C77.9411458,84 79,82.9550781 79,81.65625 L79,49.625 L65.5416667,49.625 C64.2354167,49.625 63.1666667,48.5703125 63.1666667,47.28125 Z M69,69.875 C69,70.49375 68.465625,71 67.8125,71 L51.1875,71 C50.534375,71 50,70.49375 50,69.875 L50,69.125 C50,68.50625 50.534375,68 51.1875,68 L67.8125,68 C68.465625,68 69,68.50625 69,69.125 L69,69.875 Z M69,63.875 C69,64.49375 68.465625,65 67.8125,65 L51.1875,65 C50.534375,65 50,64.49375 50,63.875 L50,63.125 C50,62.50625 50.534375,62 51.1875,62 L67.8125,62 C68.465625,62 69,62.50625 69,63.125 L69,63.875 Z M69,57.125 L69,57.875 C69,58.49375 68.465625,59 67.8125,59 L51.1875,59 C50.534375,59 50,58.49375 50,57.875 L50,57.125 C50,56.50625 50.534375,56 51.1875,56 L67.8125,56 C68.465625,56 69,56.50625 69,57.125 Z M79,46.3804687 L79,47 L66,47 L66,34 L66.6195312,34 C67.2695312,34 67.8890625,34.2539062 68.3460937,34.7109375 L78.2890625,44.6640625 C78.7460938,45.1210938 79,45.740625 79,46.3804687 Z" id="path-4"></path>
        <filter x="-5.3%" y="-4.0%" width="110.5%" height="108.0%" filterUnits="objectBoundingBox" id="filter-5">
            <feGaussianBlur stdDeviation="1.5" in="SourceAlpha" result="shadowBlurInner1"></feGaussianBlur>
            <feOffset dx="0" dy="1" in="shadowBlurInner1" result="shadowOffsetInner1"></feOffset>
            <feComposite in="shadowOffsetInner1" in2="SourceAlpha" operator="arithmetic" k2="-1" k3="1" result="shadowInnerInner1"></feComposite>
            <feColorMatrix values="0 0 0 0 0   0 0 0 0 0   0 0 0 0 0  0 0 0 0.5 0" type="matrix" in="shadowInnerInner1"></feColorMatrix>
        </filter>
    </defs>
    <g id="Single-page" stroke="none" stroke-width="1" fill="none" fill-rule="evenodd">
        <g id="01-Improve---acop11---single-page-04---desktop-large" transform="translate(-1000.000000, -5332.000000)" fill-rule="nonzero">
            <g id="Layer_3-Copy-7" transform="translate(1000.000000, 5332.000000)">
                <path d="M117.135002,58.685 C117.126716,90.8177342 91.0727374,116.860521 58.9400026,116.855 C26.8072677,116.849477 0.762241604,90.7977365 0.765002148,58.6650013 C0.767762692,26.5322661 26.8172647,0.485 58.95,0.485 C74.3842207,0.485 89.1860768,6.61724627 100.098312,17.5322949 C111.010548,28.4473435 117.138979,43.2507798 117.135002,58.685 Z" id="Path" fill="#00BDED"></path>
                <circle id="Oval" fill="url(#radialGradient-1)" style="mix-blend-mode: multiply;" cx="65.355" cy="65.675" r="56.865"></circle>
                <path d="M106.665002,58.985 C106.671067,78.1578743 95.1262757,95.4462373 77.4145907,102.787583 C59.7029058,110.128929 39.3128609,106.07729 25.7534455,92.5221651 C12.1940301,78.9670407 8.13593729,58.5782792 15.4716769,40.8642716 C22.8074166,23.1502639 40.0921248,11.5999976 59.265,11.5999976 C71.8348821,11.5960209 83.8912962,16.5865982 92.7809519,25.4734408 C101.670608,34.3602834 106.665002,46.4151173 106.665002,58.985 Z" id="Path" fill="url(#linearGradient-2)"></path>
                <path d="M105.24,58.985 C105.24,84.3762914 84.6562914,104.96 59.265,104.96 C33.8737086,104.96 13.29,84.3762914 13.29,58.985 C13.29,33.5937086 33.8737086,13.01 59.265,13.01 C84.6562914,13.01 105.24,33.5937086 105.24,58.985 L105.24,58.985 Z" id="Path" fill="url(#linearGradient-3)"></path>
                <g id="Shape">
                    <use fill="#00BDED" xlink:href="#path-4"></use>
                    <use fill="black" fill-opacity="1" filter="url(#filter-5)" xlink:href="#path-4"></use>
                </g>
            </g>
        </g>
    </g>
</svg>