<?xml version="1.0" encoding="UTF-8"?>
<svg width="215px" height="86px" viewBox="0 0 215 86" version="1.1" xmlns="http://www.w3.org/2000/svg" xmlns:xlink="http://www.w3.org/1999/xlink">
    <title>Group 5</title>
    <g id="Single-page" stroke="none" stroke-width="1" fill="none" fill-rule="evenodd">
        <g id="01-Improve---acop11---single-page-04---desktop-large" transform="translate(-77.000000, -19.000000)">
            <g id="Group-5" transform="translate(77.000000, 19.000000)">
                <g id="Group-5">
                    <path d="M42.2429577,30.062482 L48.7167444,29.0745762 C48.9922463,30.3305697 49.5503664,31.2838835 50.3926297,31.9350263 C51.2338763,32.5861691 52.4126382,32.9117405 53.9278987,32.9117405 C55.5961594,32.9117405 56.8511672,32.6049912 57.6929221,31.99251 C58.2586668,31.5636714 58.5423016,30.9893431 58.5423016,30.2690164 C58.5423016,29.7791331 58.3893015,29.373695 58.0833012,29.0516845 C57.7615434,28.7454439 57.0422903,28.462095 55.9250334,28.2016379 C50.7215037,27.0524726 47.4231054,26.0035222 46.0308549,25.0537693 C44.1023415,23.7367312 43.1380848,21.9064094 43.1380848,19.562804 C43.1380848,17.4491333 43.9722151,15.6727343 45.6404758,14.2325895 C47.3082282,12.7934622 49.894998,12.0731354 53.3997687,12.0731354 C56.73629,12.0731354 59.2158072,12.6169414 60.8383203,13.7045534 C62.4598168,14.7921654 63.577582,16.4001829 64.1895825,18.5291148 L58.106175,19.6548796 C57.8454139,18.7051268 57.352357,17.9776782 56.6254793,17.4720251 C55.8980932,16.9668807 54.8611487,16.7140541 53.5146458,16.7140541 C51.8158868,16.7140541 50.599002,16.9516195 49.8644996,17.4262416 C49.3744925,17.7635132 49.1299973,18.1999824 49.1299973,18.7356491 C49.1299973,19.1955187 49.3439942,19.5856957 49.7724962,19.9077062 C50.3545067,20.3365448 52.3628242,20.9413954 55.7989735,21.7222581 C59.2346145,22.5036295 61.6333111,23.4610129 62.9960798,24.5944084 C64.3425827,25.743065 65.0160883,27.3439607 65.0160883,29.396078 C65.0160883,31.6328553 64.08233,33.5547441 62.2153216,35.1627616 C60.3478049,36.7712879 57.5856695,37.575551 53.9278987,37.575551 C50.6066266,37.575551 47.9781756,36.9015164 46.042546,35.5534473 C44.1058997,34.2058869 42.8397091,32.3755651 42.2429577,30.062482" id="Fill-2" fill="#191414"></path>
                    <path d="M89.6179517,19.8387258 L83.2590422,20.9873824 C83.0445371,19.7161278 82.5585964,18.7587443 81.8012203,18.1157408 C81.0433359,17.4722286 80.0597636,17.1507268 78.8510116,17.1507268 C77.244256,17.1507268 75.962308,17.706233 75.0056759,18.816228 C74.0495521,19.9267318 73.571236,21.7840149 73.571236,24.3875688 C73.571236,27.2826108 74.0566683,29.3270976 75.0285496,30.5220464 C76.0004309,31.7169952 77.3052527,32.3137066 78.943015,32.3137066 C80.1670161,32.3137066 81.1699041,31.9657521 81.9506623,31.2688258 C82.7309122,30.5718995 83.281916,29.3733897 83.6031655,27.6727878 L89.9392012,28.7527692 C89.2809448,31.6630724 88.0188207,33.8611882 86.151304,35.3466077 C84.2837874,36.832536 81.7813964,37.5752458 78.6446393,37.5752458 C75.0783636,37.5752458 72.2354075,36.4494809 70.1162793,34.1984598 C67.9961345,31.9464213 66.9363163,28.8300925 66.9363163,24.8474384 C66.9363163,20.8190009 68.000201,17.6828326 70.1274621,15.4389334 C72.2547232,13.1950341 75.1322441,12.0733389 78.7595165,12.0733389 C81.7285325,12.0733389 84.0891061,12.7127815 85.8417456,13.9916667 C87.5938768,15.2705519 88.8524427,17.219402 89.6179517,19.8387258" id="Fill-4" fill="#191414"></path>
                    <polygon id="Fill-6" fill="#191414" points="92.2038574 37.0240636 98.6547703 37.0240636 98.6547703 12.6245211 92.2038574 12.6245211"></polygon>
                    <path d="M125.139298,37.0239109 L118.688385,37.0239109 L118.688385,24.5713132 C118.688385,21.937237 118.550126,20.2330741 118.275132,19.459842 C117.999122,18.6866099 117.551304,18.0853202 116.932187,17.6559729 C116.312562,17.2271343 115.565861,17.0129694 114.693099,17.0129694 C113.57635,17.0129694 112.573462,17.31921 111.68596,17.9316912 C110.798458,18.5446811 110.190015,19.3560661 109.861141,20.3668636 C109.531759,21.3781698 109.368084,23.2466445 109.368084,25.9727964 L109.368084,37.0239109 L102.916663,37.0239109 L102.916663,12.6243685 L108.908067,12.6243685 L108.908067,16.2087063 C111.035837,13.4515234 113.714101,12.0734406 116.943878,12.0734406 C118.366627,12.0734406 119.666874,12.3298281 120.846653,12.8426031 C122.02389,13.3563955 122.915459,14.0110992 123.519835,14.8072231 C124.124719,15.6038556 124.545596,16.5073163 124.782975,17.5181138 C125.020354,18.52942 125.139298,19.9766866 125.139298,21.8604225 L125.139298,37.0239109 Z" id="Fill-8" fill="#191414"></path>
                    <path d="M141.27904,12.6244194 L141.27904,17.7709912 L136.871009,17.7709912 L136.871009,27.6042652 C136.871009,29.5953379 136.913707,30.7556947 136.998086,31.0848271 C137.081448,31.4144681 137.273079,31.6861168 137.571963,31.9007904 C137.869831,32.1149554 138.233269,32.2217835 138.66228,32.2217835 C139.258523,32.2217835 140.12366,32.0152491 141.256166,31.6021804 L141.80717,36.6103844 C140.307158,37.2533879 138.608399,37.5753984 136.711401,37.5753984 C135.547888,37.5753984 134.499253,37.3800555 133.566003,36.9893698 C132.631736,36.5986842 131.947048,36.0935398 131.510921,35.4729193 C131.075303,34.8528075 130.772352,34.0144611 130.604611,32.9573714 C130.46686,32.207031 130.398239,30.6910892 130.398239,28.4080196 L130.398239,17.7709912 L127.436848,17.7709912 L127.436848,12.6244194 L130.398239,12.6244194 L130.398239,7.77696629 L136.871009,4.00898591 L136.871009,12.6244194 L141.27904,12.6244194 Z" id="Fill-9" fill="#191414"></path>
                    <path d="M157.93801,22.7334626 C157.892263,20.8649879 157.40988,19.4446826 156.491371,18.4715293 C155.57337,17.4988847 154.456113,17.0125624 153.140109,17.0125624 C151.732101,17.0125624 150.568588,17.5263548 149.650079,18.5519048 C148.732078,19.5784721 148.281211,20.9723247 148.295951,22.7334626 L157.93801,22.7334626 Z M157.570505,29.2581171 L163.999052,30.3380985 C163.172038,32.6969651 161.867216,34.4932037 160.084587,35.7257967 C158.301449,36.9588984 156.070493,37.5754493 153.393245,37.5754493 C149.152956,37.5754493 146.01569,36.1892272 143.980433,33.4167832 C142.373169,31.1962844 141.570045,28.3933181 141.570045,25.0078841 C141.570045,20.9641854 142.625288,17.7980035 144.737809,15.5078121 C146.849821,13.2181294 149.519953,12.0730337 152.74973,12.0730337 C156.37751,12.0730337 159.238766,13.2715434 161.335528,15.6685629 C163.432291,18.0660912 164.434671,21.7379262 164.343684,26.6850856 L148.181074,26.6850856 C148.22733,28.5998524 148.747836,30.0893416 149.742591,31.1540619 C150.737346,32.2187821 151.976088,32.7503792 153.461358,32.7503792 C154.471362,32.7503792 155.32125,32.4746609 156.010005,31.9232243 C156.698252,31.3717878 157.218249,30.4835883 157.570505,29.2581171 L157.570505,29.2581171 Z" id="Fill-10" fill="#191414"></path>
                    <path d="M188.554507,19.8387258 L182.195598,20.9873824 C181.981093,19.7161278 181.494644,18.7587443 180.737268,18.1157408 C179.979892,17.4722286 178.996827,17.1507268 177.787567,17.1507268 C176.180303,17.1507268 174.898864,17.706233 173.94274,18.816228 C172.985599,19.9267318 172.5083,21.7840149 172.5083,24.3875688 C172.5083,27.2826108 172.993732,29.3270976 173.965614,30.5220464 C174.937495,31.7169952 176.241808,32.3137066 177.879062,32.3137066 C179.10408,32.3137066 180.105951,31.9657521 180.887218,31.2688258 C181.667468,30.5718995 182.218472,29.3733897 182.540229,27.6727878 L188.876265,28.7527692 C188.218009,31.6630724 186.955376,33.8611882 185.08786,35.3466077 C183.220343,36.832536 180.71846,37.5752458 177.581195,37.5752458 C174.014919,37.5752458 171.171963,36.4494809 169.052327,34.1984598 C166.93269,31.9464213 165.87338,28.8300925 165.87338,24.8474384 C165.87338,20.8190009 166.936757,17.6828326 169.064018,15.4389334 C171.191787,13.1950341 174.0688,12.0733389 177.695564,12.0733389 C180.665088,12.0733389 183.025662,12.7127815 184.777793,13.9916667 C186.530432,15.2705519 187.788998,17.219402 188.554507,19.8387258" id="Fill-11" fill="#191414"></path>
                    <path d="M196.259513,24.8241397 C196.259513,27.2445597 196.833391,29.0977732 197.981146,30.3837803 C199.128901,31.6702961 200.544534,32.3138083 202.228043,32.3138083 C203.912062,32.3138083 205.323628,31.6702961 206.464267,30.3837803 C207.603889,29.0977732 208.1737,27.2292985 208.1737,24.7783562 C208.1737,22.3889673 207.603889,20.551015 206.464267,19.2639905 C205.323628,17.9779834 203.912062,17.3344712 202.228043,17.3344712 C200.544534,17.3344712 199.128901,17.9779834 197.981146,19.2639905 C196.833391,20.551015 196.259513,22.4042285 196.259513,24.8241397 M189.647467,24.4797462 C189.647467,22.3350445 190.175597,20.2600355 191.231857,18.253193 C192.288626,16.2468592 193.783554,14.7151474 195.7202,13.6585664 C197.656338,12.6014768 199.817656,12.0734406 202.20517,12.0734406 C205.893439,12.0734406 208.916335,13.2719504 211.273351,15.6684612 C213.630366,18.0659894 214.80862,21.094821 214.80862,24.7554645 C214.80862,28.4471391 213.618167,31.5059842 211.238786,33.9340348 C208.858897,36.3615766 205.862941,37.5753475 202.250917,37.5753475 C200.016404,37.5753475 197.885584,37.0696944 195.857443,36.0588969 C193.830318,35.0480994 192.288626,33.5662408 191.231857,31.6133211 C190.175597,29.6604013 189.647467,27.2827126 189.647467,24.4797462" id="Fill-12" fill="#191414"></path>
                    <path d="M95.3877695,8.29285714 C93.129663,8.29285714 91.2992958,6.43724562 91.2992958,4.1468805 C91.2992958,1.85651538 93.129663,0 95.3877695,0 C97.6449848,0 99.4753521,1.85651538 99.4753521,4.1468805 C99.4753521,6.43724562 97.6449848,8.29285714 95.3877695,8.29285714 Z" id="Fill-13-Copy-3" fill="#00BDED"></path>
                    <g id="Group-5" transform="translate(0.000000, 6.757143)" fill="#00BDED">
                        <path d="M17.2615927,24.3494269 C13.4479018,24.3494269 10.3566149,21.2362597 10.3566149,17.3937045 C10.3566149,13.5511493 13.4479018,10.4364657 17.2615927,10.4364657 C21.0737786,10.4364657 24.1650656,13.5511493 24.1650656,17.3937045 C24.1650656,21.2362597 21.0737786,24.3494269 17.2615927,24.3494269 Z" id="Fill-13"></path>
                        <path d="M10.6206245,1.38091279 C19.466755,-2.43532224 29.5921121,1.93595911 33.2230328,11.0718814 C35.0445199,15.6512837 34.9276553,20.707507 33.0118835,25.1492557 C32.2519984,26.911062 30.2184921,27.7186173 28.46992,26.9529809 C26.7446622,26.1975531 25.9414001,24.1928566 26.6501797,22.4472627 L26.6797438,22.3766411 C27.8688567,19.6196631 27.9411315,16.4926479 26.8139567,13.6588166 C24.6100751,8.11353159 18.5849547,5.51238912 13.3391132,7.7754535 C8.03313987,10.0664164 5.48370931,16.4799939 7.71220254,22.0838174 C8.81169136,24.8499275 10.901751,26.9503997 13.5040222,28.0192625 L13.626377,28.0686085 C15.4008576,28.7711292 16.2741307,30.7900229 15.5768872,32.5779338 C14.8796436,34.3658446 12.8759153,35.2457272 11.1014348,34.5432065 C6.68067264,32.7930172 3.13104842,29.2694656 1.30309224,24.6706666 C-2.3067483,15.5932737 1.83482324,5.17436263 10.6206245,1.38091279 Z" id="Stroke-39" fill-rule="nonzero"></path>
                    </g>
                </g>
                <path d="M46.575662,58.5340571 C47.1061972,58.5340571 47.5731408,58.4714 47.976493,58.3460857 C48.3798451,58.2207714 48.7177887,58.0457 48.9903239,57.8208714 C49.2628592,57.5960429 49.468169,57.3288286 49.6062535,57.0192286 C49.744338,56.7096286 49.8133803,56.3742286 49.8133803,56.0130286 C49.8133803,55.5707429 49.7207183,55.2077 49.5353944,54.9239 C49.3500704,54.6401 49.1302254,54.4134286 48.8758592,54.2438857 C48.621493,54.0743429 48.3653099,53.9508714 48.1073099,53.8734714 C47.8493099,53.7960714 47.6476338,53.7426286 47.5022817,53.7131429 C47.0153521,53.5878286 46.6210845,53.4846286 46.3194789,53.4035429 C46.0178732,53.3224571 45.7816761,53.2413714 45.6108873,53.1602857 C45.4400986,53.0792 45.3256338,52.9907429 45.267493,52.8949143 C45.2093521,52.7990857 45.1802817,52.6737714 45.1802817,52.5189714 C45.1802817,52.3494286 45.2166197,52.2093714 45.2892958,52.0988 C45.3619718,51.9882286 45.4546338,51.8960857 45.5672817,51.8223714 C45.6799296,51.7486571 45.8052958,51.6970571 45.9433803,51.6675714 C46.0814648,51.6380857 46.2195493,51.6233429 46.3576338,51.6233429 C46.5683944,51.6233429 46.7628028,51.6417714 46.9408592,51.6786286 C47.1189155,51.7154857 47.2769859,51.7781429 47.4150704,51.8666 C47.5531549,51.9550571 47.6639859,52.0766857 47.7475634,52.2314857 C47.8311408,52.3862857 47.8801972,52.5816286 47.8947324,52.8175143 L49.5517465,52.8175143 C49.5517465,52.3604857 49.4663521,51.9716429 49.2955634,51.6509857 C49.1247746,51.3303286 48.8940282,51.0668 48.6033239,50.8604 C48.3126197,50.654 47.9801268,50.5047286 47.6058451,50.4125857 C47.2315634,50.3204429 46.8409296,50.2743714 46.4339437,50.2743714 C46.0850986,50.2743714 45.7362535,50.3222857 45.3874085,50.4181143 C45.0385634,50.5139429 44.7260563,50.6613714 44.4498873,50.8604 C44.1737183,51.0594286 43.9502394,51.3082143 43.7794507,51.6067571 C43.608662,51.9053 43.5232676,52.2572857 43.5232676,52.6627143 C43.5232676,53.0239143 43.590493,53.3316714 43.7249437,53.5859857 C43.8593944,53.8403 44.0356338,54.0522286 44.253662,54.2217714 C44.4716901,54.3913143 44.7187887,54.5295286 44.9949577,54.6364143 C45.2711268,54.7433 45.5545634,54.8336 45.8452676,54.9073143 C46.1287042,54.9884 46.408507,55.0621143 46.6846761,55.1284571 C46.9608451,55.1948 47.2079437,55.2722 47.4259718,55.3606571 C47.644,55.4491143 47.8202394,55.5596857 47.9546901,55.6923714 C48.0891408,55.8250571 48.1563662,55.9982857 48.1563662,56.2120571 C48.1563662,56.4110857 48.105493,56.5751 48.0037465,56.7041 C47.902,56.8331 47.7748169,56.9344571 47.6221972,57.0081714 C47.4695775,57.0818857 47.3060563,57.1316429 47.1316338,57.1574429 C46.9572113,57.1832429 46.7936901,57.1961429 46.6410704,57.1961429 C46.4157746,57.1961429 46.1977465,57.1685 45.9869859,57.1132143 C45.7762254,57.0579286 45.5927183,56.9731571 45.4364648,56.8589 C45.2802113,56.7446429 45.1548451,56.5953714 45.0603662,56.4110857 C44.9658873,56.2268 44.9186479,56.0019714 44.9186479,55.7366 L43.2616338,55.7366 C43.2543662,56.2231143 43.3415775,56.6432857 43.5232676,56.9971143 C43.7049577,57.3509429 43.9502394,57.6421143 44.2591127,57.8706286 C44.5679859,58.0991429 44.9240986,58.2668429 45.3274507,58.3737286 C45.7308028,58.4806143 46.1468732,58.5340571 46.575662,58.5340571 Z M54.9818592,58.5340571 C55.4615211,58.5340571 55.9012113,58.4603429 56.3009296,58.3129143 C56.7006479,58.1654857 57.049493,57.9517143 57.3474648,57.6716 C57.6454366,57.3914857 57.8852676,57.0524 58.0669577,56.6543429 C58.2486479,56.2562857 58.3612958,55.8103143 58.4049014,55.3164286 L56.7478873,55.3164286 C56.6824789,55.8471714 56.5026056,56.2747143 56.2082676,56.5990571 C55.9139296,56.9234 55.5051268,57.0855714 54.9818592,57.0855714 C54.5966761,57.0855714 54.2696338,57.0100143 54.0007324,56.8589 C53.731831,56.7077857 53.5138028,56.5069143 53.3466479,56.2562857 C53.179493,56.0056571 53.0577606,55.7237 52.9814507,55.4104143 C52.9051408,55.0971286 52.8669859,54.7746286 52.8669859,54.4429143 C52.8669859,54.0964571 52.9051408,53.7610571 52.9814507,53.4367143 C53.0577606,53.1123714 53.179493,52.8230429 53.3466479,52.5687286 C53.5138028,52.3144143 53.731831,52.1117 54.0007324,51.9605857 C54.2696338,51.8094714 54.5966761,51.7339143 54.9818592,51.7339143 C55.1926197,51.7339143 55.3942958,51.7689286 55.5868873,51.8389571 C55.7794789,51.9089857 55.9520845,52.0066571 56.1047042,52.1319714 C56.2573239,52.2572857 56.384507,52.4028714 56.4862535,52.5687286 C56.588,52.7345857 56.6534085,52.9170286 56.6824789,53.1160571 L58.339493,53.1160571 C58.2886197,52.6590286 58.1650704,52.2536 57.9688451,51.8997714 C57.7726197,51.5459429 57.5237042,51.2492429 57.2220986,51.0096714 C56.920493,50.7701 56.5789155,50.5876571 56.1973662,50.4623429 C55.8158169,50.3370286 55.4106479,50.2743714 54.9818592,50.2743714 C54.3859155,50.2743714 53.8499296,50.3812571 53.3739014,50.5950286 C52.8978732,50.8088 52.496338,51.1036571 52.1692958,51.4796 C51.8422535,51.8555429 51.5915211,52.2959857 51.4170986,52.8009286 C51.2426761,53.3058714 51.1554648,53.8532 51.1554648,54.4429143 C51.1554648,55.0178857 51.2426761,55.5541571 51.4170986,56.0517286 C51.5915211,56.5493 51.8422535,56.9823714 52.1692958,57.3509429 C52.496338,57.7195143 52.8978732,58.0088429 53.3739014,58.2189286 C53.8499296,58.4290143 54.3859155,58.5340571 54.9818592,58.5340571 Z M61.9490704,58.3571429 L61.9490704,50.4623429 L60.2375493,50.4623429 L60.2375493,58.3571429 L61.9490704,58.3571429 Z M70.0282254,58.3571429 L70.0282254,56.8976 L65.8311831,56.8976 L65.8311831,54.9626 L69.6030704,54.9626 L69.6030704,53.6136286 L65.8311831,53.6136286 L65.8311831,51.9218857 L69.9410141,51.9218857 L69.9410141,50.4623429 L64.119662,50.4623429 L64.119662,58.3571429 L70.0282254,58.3571429 Z M73.4524789,58.3571429 L73.4524789,53.0718286 L73.4742817,53.0718286 L76.712,58.3571429 L78.4235211,58.3571429 L78.4235211,50.4623429 L76.8210141,50.4623429 L76.8210141,55.7587143 L76.7992113,55.7587143 L73.5505915,50.4623429 L71.8499718,50.4623429 L71.8499718,58.3571429 L73.4524789,58.3571429 Z M84.0280563,58.3571429 L84.0280563,51.9218857 L86.3609577,51.9218857 L86.3609577,50.4623429 L79.9836338,50.4623429 L79.9836338,51.9218857 L82.3165352,51.9218857 L82.3165352,58.3571429 L84.0280563,58.3571429 Z M89.6325915,58.3571429 L89.6325915,50.4623429 L87.9210704,50.4623429 L87.9210704,58.3571429 L89.6325915,58.3571429 Z M93.5147042,58.3571429 L93.5147042,55.0952857 L96.7742254,55.0952857 L96.7742254,53.7463143 L93.5147042,53.7463143 L93.5147042,51.9218857 L97.2756901,51.9218857 L97.2756901,50.4623429 L91.8031831,50.4623429 L91.8031831,58.3571429 L93.5147042,58.3571429 Z M100.645437,58.3571429 L100.645437,50.4623429 L98.9339155,50.4623429 L98.9339155,58.3571429 L100.645437,58.3571429 Z M106.304479,58.5340571 C106.784141,58.5340571 107.223831,58.4603429 107.623549,58.3129143 C108.023268,58.1654857 108.372113,57.9517143 108.670085,57.6716 C108.968056,57.3914857 109.207887,57.0524 109.389577,56.6543429 C109.571268,56.2562857 109.683915,55.8103143 109.727521,55.3164286 L108.070507,55.3164286 C108.005099,55.8471714 107.825225,56.2747143 107.530887,56.5990571 C107.236549,56.9234 106.827746,57.0855714 106.304479,57.0855714 C105.919296,57.0855714 105.592254,57.0100143 105.323352,56.8589 C105.054451,56.7077857 104.836423,56.5069143 104.669268,56.2562857 C104.502113,56.0056571 104.38038,55.7237 104.30407,55.4104143 C104.227761,55.0971286 104.189606,54.7746286 104.189606,54.4429143 C104.189606,54.0964571 104.227761,53.7610571 104.30407,53.4367143 C104.38038,53.1123714 104.502113,52.8230429 104.669268,52.5687286 C104.836423,52.3144143 105.054451,52.1117 105.323352,51.9605857 C105.592254,51.8094714 105.919296,51.7339143 106.304479,51.7339143 C106.515239,51.7339143 106.716915,51.7689286 106.909507,51.8389571 C107.102099,51.9089857 107.274704,52.0066571 107.427324,52.1319714 C107.579944,52.2572857 107.707127,52.4028714 107.808873,52.5687286 C107.91062,52.7345857 107.976028,52.9170286 108.005099,53.1160571 L109.662113,53.1160571 C109.611239,52.6590286 109.48769,52.2536 109.291465,51.8997714 C109.095239,51.5459429 108.846324,51.2492429 108.544718,51.0096714 C108.243113,50.7701 107.901535,50.5876571 107.519986,50.4623429 C107.138437,50.3370286 106.733268,50.2743714 106.304479,50.2743714 C105.708535,50.2743714 105.172549,50.3812571 104.696521,50.5950286 C104.220493,50.8088 103.818958,51.1036571 103.491915,51.4796 C103.164873,51.8555429 102.914141,52.2959857 102.739718,52.8009286 C102.565296,53.3058714 102.478085,53.8532 102.478085,54.4429143 C102.478085,55.0178857 102.565296,55.5541571 102.739718,56.0517286 C102.914141,56.5493 103.164873,56.9823714 103.491915,57.3509429 C103.818958,57.7195143 104.220493,58.0088429 104.696521,58.2189286 C105.172549,58.4290143 105.708535,58.5340571 106.304479,58.5340571 Z M45.4637183,71.8714286 L45.4637183,63.9766286 L43.7521972,63.9766286 L43.7521972,71.8714286 L45.4637183,71.8714286 Z M49.2368169,71.8714286 L49.2368169,66.5861143 L49.2586197,66.5861143 L52.496338,71.8714286 L54.2078592,71.8714286 L54.2078592,63.9766286 L52.6053521,63.9766286 L52.6053521,69.273 L52.5835493,69.273 L49.3349296,63.9766286 L47.6343099,63.9766286 L47.6343099,71.8714286 L49.2368169,71.8714286 Z M58.0899718,71.8714286 L58.0899718,68.6095714 L61.349493,68.6095714 L61.349493,67.2606 L58.0899718,67.2606 L58.0899718,65.4361714 L61.8509577,65.4361714 L61.8509577,63.9766286 L56.3784507,63.9766286 L56.3784507,71.8714286 L58.0899718,71.8714286 Z M66.9976338,72.0483429 C67.6008451,72.0483429 68.1386479,71.9433 68.6110423,71.7332143 C69.0834366,71.5231286 69.4831549,71.2338 69.8101972,70.8652286 C70.1372394,70.4966571 70.3879718,70.0635857 70.5623944,69.5660143 C70.7368169,69.0684429 70.8240282,68.5321714 70.8240282,67.9572 C70.8240282,67.3674857 70.7368169,66.8201571 70.5623944,66.3152143 C70.3879718,65.8102714 70.1372394,65.3698286 69.8101972,64.9938857 C69.4831549,64.6179429 69.0834366,64.3230857 68.6110423,64.1093143 C68.1386479,63.8955429 67.6008451,63.7886571 66.9976338,63.7886571 C66.4016901,63.7886571 65.8657042,63.8955429 65.3896761,64.1093143 C64.9136479,64.3230857 64.5121127,64.6179429 64.1850704,64.9938857 C63.8580282,65.3698286 63.6072958,65.8102714 63.4328732,66.3152143 C63.2584507,66.8201571 63.1712394,67.3674857 63.1712394,67.9572 C63.1712394,68.5321714 63.2584507,69.0684429 63.4328732,69.5660143 C63.6072958,70.0635857 63.8580282,70.4966571 64.1850704,70.8652286 C64.5121127,71.2338 64.9136479,71.5231286 65.3896761,71.7332143 C65.8657042,71.9433 66.4016901,72.0483429 66.9976338,72.0483429 Z M66.9976338,70.5998571 C66.6124507,70.5998571 66.2854085,70.5243 66.016507,70.3731857 C65.7476056,70.2220714 65.5295775,70.0212 65.3624225,69.7705714 C65.1952676,69.5199429 65.0735352,69.2379857 64.9972254,68.9247 C64.9209155,68.6114143 64.8827606,68.2889143 64.8827606,67.9572 C64.8827606,67.6107429 64.9209155,67.2753429 64.9972254,66.951 C65.0735352,66.6266571 65.1952676,66.3373286 65.3624225,66.0830143 C65.5295775,65.8287 65.7476056,65.6259857 66.016507,65.4748714 C66.2854085,65.3237571 66.6124507,65.2482 66.9976338,65.2482 C67.3828169,65.2482 67.7098592,65.3237571 67.9787606,65.4748714 C68.247662,65.6259857 68.4656901,65.8287 68.6328451,66.0830143 C68.8,66.3373286 68.9217324,66.6266571 68.9980423,66.951 C69.0743521,67.2753429 69.112507,67.6107429 69.112507,67.9572 C69.112507,68.2889143 69.0743521,68.6114143 68.9980423,68.9247 C68.9217324,69.2379857 68.8,69.5199429 68.6328451,69.7705714 C68.4656901,70.0212 68.247662,70.2220714 67.9787606,70.3731857 C67.7098592,70.5243 67.3828169,70.5998571 66.9976338,70.5998571 Z M74.3681972,71.8714286 L74.3681972,68.7864857 L76.0797183,68.7864857 C76.508507,68.7864857 76.8173803,68.8823143 77.006338,69.0739714 C77.1952958,69.2656286 77.3188451,69.5678571 77.3769859,69.9806571 C77.4205915,70.2976286 77.4532958,70.6293429 77.4750986,70.9758 C77.4969014,71.3222571 77.5550423,71.6208 77.6495211,71.8714286 L79.3610423,71.8714286 C79.2810986,71.7608571 79.2211408,71.6263286 79.181169,71.4678429 C79.1411972,71.3093571 79.1121268,71.1416571 79.0939577,70.9647429 C79.0757887,70.7878286 79.0630704,70.6146 79.0558028,70.4450571 C79.0485352,70.2755143 79.0412676,70.1280857 79.034,70.0027714 C79.0194648,69.8037429 78.9922113,69.6047143 78.9522394,69.4056857 C78.9122676,69.2066571 78.8486761,69.0242143 78.7614648,68.8583571 C78.6742535,68.6925 78.5616056,68.5487571 78.4235211,68.4271286 C78.2854366,68.3055 78.1110141,68.2152 77.9002535,68.1562286 L77.9002535,68.1341143 C78.3363099,67.9572 78.6506338,67.6992 78.8432254,67.3601143 C79.0358169,67.0210286 79.1321127,66.6192857 79.1321127,66.1548857 C79.1321127,65.8526571 79.0794225,65.5707 78.9740423,65.3090143 C78.868662,65.0473286 78.7160423,64.8169714 78.5161831,64.6179429 C78.3163239,64.4189143 78.076493,64.2622714 77.7966901,64.1480143 C77.5168873,64.0337571 77.2025634,63.9766286 76.8537183,63.9766286 L72.6566761,63.9766286 L72.6566761,71.8714286 L74.3681972,71.8714286 Z M76.2432394,67.5480857 L74.3681972,67.5480857 L74.3681972,65.3256 L76.2432394,65.3256 C76.6356901,65.3256 76.9300282,65.4122143 77.1262535,65.5854429 C77.3224789,65.7586714 77.4205915,66.0369429 77.4205915,66.4202571 C77.4205915,66.8183143 77.3224789,67.1058 77.1262535,67.2827143 C76.9300282,67.4596286 76.6356901,67.5480857 76.2432394,67.5480857 Z M82.7961972,71.8714286 L82.7961972,66.3318 L82.818,66.3318 L84.7257465,71.8714286 L86.0448169,71.8714286 L87.9525634,66.2765143 L87.9743662,66.2765143 L87.9743662,71.8714286 L89.5768732,71.8714286 L89.5768732,63.9766286 L87.167662,63.9766286 L85.4452394,69.4056857 L85.4234366,69.4056857 L83.6029014,63.9766286 L81.1936901,63.9766286 L81.1936901,71.8714286 L82.7961972,71.8714286 Z M92.6522817,71.8714286 L93.2627606,70.1133429 L96.1734366,70.1133429 L96.7621127,71.8714286 L98.5390423,71.8714286 L95.6283662,63.9766286 L93.8732394,63.9766286 L90.9298592,71.8714286 L92.6522817,71.8714286 Z M95.7264789,68.8196571 L93.7097183,68.8196571 L94.7235493,65.9226857 L94.7453521,65.9226857 L95.7264789,68.8196571 Z M102.312141,71.8714286 L102.312141,65.4361714 L104.645042,65.4361714 L104.645042,63.9766286 L98.2677183,63.9766286 L98.2677183,65.4361714 L100.60062,65.4361714 L100.60062,71.8714286 L102.312141,71.8714286 Z M107.916676,71.8714286 L107.916676,63.9766286 L106.205155,63.9766286 L106.205155,71.8714286 L107.916676,71.8714286 Z M113.575718,72.0483429 C114.17893,72.0483429 114.716732,71.9433 115.189127,71.7332143 C115.661521,71.5231286 116.061239,71.2338 116.388282,70.8652286 C116.715324,70.4966571 116.966056,70.0635857 117.140479,69.5660143 C117.314901,69.0684429 117.402113,68.5321714 117.402113,67.9572 C117.402113,67.3674857 117.314901,66.8201571 117.140479,66.3152143 C116.966056,65.8102714 116.715324,65.3698286 116.388282,64.9938857 C116.061239,64.6179429 115.661521,64.3230857 115.189127,64.1093143 C114.716732,63.8955429 114.17893,63.7886571 113.575718,63.7886571 C112.979775,63.7886571 112.443789,63.8955429 111.967761,64.1093143 C111.491732,64.3230857 111.090197,64.6179429 110.763155,64.9938857 C110.436113,65.3698286 110.18538,65.8102714 110.010958,66.3152143 C109.836535,66.8201571 109.749324,67.3674857 109.749324,67.9572 C109.749324,68.5321714 109.836535,69.0684429 110.010958,69.5660143 C110.18538,70.0635857 110.436113,70.4966571 110.763155,70.8652286 C111.090197,71.2338 111.491732,71.5231286 111.967761,71.7332143 C112.443789,71.9433 112.979775,72.0483429 113.575718,72.0483429 Z M113.575718,70.5998571 C113.190535,70.5998571 112.863493,70.5243 112.594592,70.3731857 C112.32569,70.2220714 112.107662,70.0212 111.940507,69.7705714 C111.773352,69.5199429 111.65162,69.2379857 111.57531,68.9247 C111.499,68.6114143 111.460845,68.2889143 111.460845,67.9572 C111.460845,67.6107429 111.499,67.2753429 111.57531,66.951 C111.65162,66.6266571 111.773352,66.3373286 111.940507,66.0830143 C112.107662,65.8287 112.32569,65.6259857 112.594592,65.4748714 C112.863493,65.3237571 113.190535,65.2482 113.575718,65.2482 C113.960901,65.2482 114.287944,65.3237571 114.556845,65.4748714 C114.825746,65.6259857 115.043775,65.8287 115.21093,66.0830143 C115.378085,66.3373286 115.499817,66.6266571 115.576127,66.951 C115.652437,67.2753429 115.690592,67.6107429 115.690592,67.9572 C115.690592,68.2889143 115.652437,68.6114143 115.576127,68.9247 C115.499817,69.2379857 115.378085,69.5199429 115.21093,69.7705714 C115.043775,70.0212 114.825746,70.2220714 114.556845,70.3731857 C114.287944,70.5243 113.960901,70.5998571 113.575718,70.5998571 Z M120.837268,71.8714286 L120.837268,66.5861143 L120.85907,66.5861143 L124.096789,71.8714286 L125.80831,71.8714286 L125.80831,63.9766286 L124.205803,63.9766286 L124.205803,69.273 L124.184,69.273 L120.93538,63.9766286 L119.234761,63.9766286 L119.234761,71.8714286 L120.837268,71.8714286 Z M135.109634,71.8714286 L135.109634,65.4361714 L137.442535,65.4361714 L137.442535,63.9766286 L131.065211,63.9766286 L131.065211,65.4361714 L133.398113,65.4361714 L133.398113,71.8714286 L135.109634,71.8714286 Z M144.911211,71.8714286 L144.911211,70.4118857 L140.714169,70.4118857 L140.714169,68.4768857 L144.486056,68.4768857 L144.486056,67.1279143 L140.714169,67.1279143 L140.714169,65.4361714 L144.824,65.4361714 L144.824,63.9766286 L139.002648,63.9766286 L139.002648,71.8714286 L144.911211,71.8714286 Z M150.221408,72.0483429 C150.70107,72.0483429 151.140761,71.9746286 151.540479,71.8272 C151.940197,71.6797714 152.289042,71.466 152.587014,71.1858857 C152.884986,70.9057714 153.124817,70.5666857 153.306507,70.1686286 C153.488197,69.7705714 153.600845,69.3246 153.644451,68.8307143 L151.987437,68.8307143 C151.922028,69.3614571 151.742155,69.789 151.447817,70.1133429 C151.153479,70.4376857 150.744676,70.5998571 150.221408,70.5998571 C149.836225,70.5998571 149.509183,70.5243 149.240282,70.3731857 C148.97138,70.2220714 148.753352,70.0212 148.586197,69.7705714 C148.419042,69.5199429 148.29731,69.2379857 148.221,68.9247 C148.14469,68.6114143 148.106535,68.2889143 148.106535,67.9572 C148.106535,67.6107429 148.14469,67.2753429 148.221,66.951 C148.29731,66.6266571 148.419042,66.3373286 148.586197,66.0830143 C148.753352,65.8287 148.97138,65.6259857 149.240282,65.4748714 C149.509183,65.3237571 149.836225,65.2482 150.221408,65.2482 C150.432169,65.2482 150.633845,65.2832143 150.826437,65.3532429 C151.019028,65.4232714 151.191634,65.5209429 151.344254,65.6462571 C151.496873,65.7715714 151.624056,65.9171571 151.725803,66.0830143 C151.827549,66.2488714 151.892958,66.4313143 151.922028,66.6303429 L153.579042,66.6303429 C153.528169,66.1733143 153.40462,65.7678857 153.208394,65.4140571 C153.012169,65.0602286 152.763254,64.7635286 152.461648,64.5239571 C152.160042,64.2843857 151.818465,64.1019429 151.436915,63.9766286 C151.055366,63.8513143 150.650197,63.7886571 150.221408,63.7886571 C149.625465,63.7886571 149.089479,63.8955429 148.613451,64.1093143 C148.137423,64.3230857 147.735887,64.6179429 147.408845,64.9938857 C147.081803,65.3698286 146.83107,65.8102714 146.656648,66.3152143 C146.482225,66.8201571 146.395014,67.3674857 146.395014,67.9572 C146.395014,68.5321714 146.482225,69.0684429 146.656648,69.5660143 C146.83107,70.0635857 147.081803,70.4966571 147.408845,70.8652286 C147.735887,71.2338 148.137423,71.5231286 148.613451,71.7332143 C149.089479,71.9433 149.625465,72.0483429 150.221408,72.0483429 Z M157.18862,71.8714286 L157.18862,68.4658286 L160.339127,68.4658286 L160.339127,71.8714286 L162.050648,71.8714286 L162.050648,63.9766286 L160.339127,63.9766286 L160.339127,67.0062857 L157.18862,67.0062857 L157.18862,63.9766286 L155.477099,63.9766286 L155.477099,71.8714286 L157.18862,71.8714286 Z M165.823746,71.8714286 L165.823746,66.5861143 L165.845549,66.5861143 L169.083268,71.8714286 L170.794789,71.8714286 L170.794789,63.9766286 L169.192282,63.9766286 L169.192282,69.273 L169.170479,69.273 L165.921859,63.9766286 L164.221239,63.9766286 L164.221239,71.8714286 L165.823746,71.8714286 Z M176.453831,72.0483429 C177.057042,72.0483429 177.594845,71.9433 178.067239,71.7332143 C178.539634,71.5231286 178.939352,71.2338 179.266394,70.8652286 C179.593437,70.4966571 179.844169,70.0635857 180.018592,69.5660143 C180.193014,69.0684429 180.280225,68.5321714 180.280225,67.9572 C180.280225,67.3674857 180.193014,66.8201571 180.018592,66.3152143 C179.844169,65.8102714 179.593437,65.3698286 179.266394,64.9938857 C178.939352,64.6179429 178.539634,64.3230857 178.067239,64.1093143 C177.594845,63.8955429 177.057042,63.7886571 176.453831,63.7886571 C175.857887,63.7886571 175.321901,63.8955429 174.845873,64.1093143 C174.369845,64.3230857 173.96831,64.6179429 173.641268,64.9938857 C173.314225,65.3698286 173.063493,65.8102714 172.88907,66.3152143 C172.714648,66.8201571 172.627437,67.3674857 172.627437,67.9572 C172.627437,68.5321714 172.714648,69.0684429 172.88907,69.5660143 C173.063493,70.0635857 173.314225,70.4966571 173.641268,70.8652286 C173.96831,71.2338 174.369845,71.5231286 174.845873,71.7332143 C175.321901,71.9433 175.857887,72.0483429 176.453831,72.0483429 Z M176.453831,70.5998571 C176.068648,70.5998571 175.741606,70.5243 175.472704,70.3731857 C175.203803,70.2220714 174.985775,70.0212 174.81862,69.7705714 C174.651465,69.5199429 174.529732,69.2379857 174.453423,68.9247 C174.377113,68.6114143 174.338958,68.2889143 174.338958,67.9572 C174.338958,67.6107429 174.377113,67.2753429 174.453423,66.951 C174.529732,66.6266571 174.651465,66.3373286 174.81862,66.0830143 C174.985775,65.8287 175.203803,65.6259857 175.472704,65.4748714 C175.741606,65.3237571 176.068648,65.2482 176.453831,65.2482 C176.839014,65.2482 177.166056,65.3237571 177.434958,65.4748714 C177.703859,65.6259857 177.921887,65.8287 178.089042,66.0830143 C178.256197,66.3373286 178.37793,66.6266571 178.454239,66.951 C178.530549,67.2753429 178.568704,67.6107429 178.568704,67.9572 C178.568704,68.2889143 178.530549,68.6114143 178.454239,68.9247 C178.37793,69.2379857 178.256197,69.5199429 178.089042,69.7705714 C177.921887,70.0212 177.703859,70.2220714 177.434958,70.3731857 C177.166056,70.5243 176.839014,70.5998571 176.453831,70.5998571 Z M187.618085,71.8714286 L187.618085,70.4118857 L183.824394,70.4118857 L183.824394,63.9766286 L182.112873,63.9766286 L182.112873,71.8714286 L187.618085,71.8714286 Z M192.732056,72.0483429 C193.335268,72.0483429 193.87307,71.9433 194.345465,71.7332143 C194.817859,71.5231286 195.217577,71.2338 195.54462,70.8652286 C195.871662,70.4966571 196.122394,70.0635857 196.296817,69.5660143 C196.471239,69.0684429 196.558451,68.5321714 196.558451,67.9572 C196.558451,67.3674857 196.471239,66.8201571 196.296817,66.3152143 C196.122394,65.8102714 195.871662,65.3698286 195.54462,64.9938857 C195.217577,64.6179429 194.817859,64.3230857 194.345465,64.1093143 C193.87307,63.8955429 193.335268,63.7886571 192.732056,63.7886571 C192.136113,63.7886571 191.600127,63.8955429 191.124099,64.1093143 C190.64807,64.3230857 190.246535,64.6179429 189.919493,64.9938857 C189.592451,65.3698286 189.341718,65.8102714 189.167296,66.3152143 C188.992873,66.8201571 188.905662,67.3674857 188.905662,67.9572 C188.905662,68.5321714 188.992873,69.0684429 189.167296,69.5660143 C189.341718,70.0635857 189.592451,70.4966571 189.919493,70.8652286 C190.246535,71.2338 190.64807,71.5231286 191.124099,71.7332143 C191.600127,71.9433 192.136113,72.0483429 192.732056,72.0483429 Z M192.732056,70.5998571 C192.346873,70.5998571 192.019831,70.5243 191.75093,70.3731857 C191.482028,70.2220714 191.264,70.0212 191.096845,69.7705714 C190.92969,69.5199429 190.807958,69.2379857 190.731648,68.9247 C190.655338,68.6114143 190.617183,68.2889143 190.617183,67.9572 C190.617183,67.6107429 190.655338,67.2753429 190.731648,66.951 C190.807958,66.6266571 190.92969,66.3373286 191.096845,66.0830143 C191.264,65.8287 191.482028,65.6259857 191.75093,65.4748714 C192.019831,65.3237571 192.346873,65.2482 192.732056,65.2482 C193.117239,65.2482 193.444282,65.3237571 193.713183,65.4748714 C193.982085,65.6259857 194.200113,65.8287 194.367268,66.0830143 C194.534423,66.3373286 194.656155,66.6266571 194.732465,66.951 C194.808775,67.2753429 194.84693,67.6107429 194.84693,67.9572 C194.84693,68.2889143 194.808775,68.6114143 194.732465,68.9247 C194.656155,69.2379857 194.534423,69.5199429 194.367268,69.7705714 C194.200113,70.0212 193.982085,70.2220714 193.713183,70.3731857 C193.444282,70.5243 193.117239,70.5998571 192.732056,70.5998571 Z M201.879549,72.0483429 C202.257465,72.0483429 202.631746,71.9691 203.002394,71.8106143 C203.373042,71.6521286 203.710986,71.3738571 204.016225,70.9758 L204.190648,71.8714286 L205.280789,71.8714286 L205.280789,67.6033714 L202.010366,67.6033714 L202.010366,68.8970571 L203.732789,68.8970571 C203.681915,69.4499143 203.502042,69.8719286 203.193169,70.1631 C202.884296,70.4542714 202.446423,70.5998571 201.879549,70.5998571 C201.494366,70.5998571 201.167324,70.5243 200.898423,70.3731857 C200.629521,70.2220714 200.411493,70.0212 200.244338,69.7705714 C200.077183,69.5199429 199.955451,69.2379857 199.879141,68.9247 C199.802831,68.6114143 199.764676,68.2889143 199.764676,67.9572 C199.764676,67.6107429 199.802831,67.2753429 199.879141,66.951 C199.955451,66.6266571 200.077183,66.3373286 200.244338,66.0830143 C200.411493,65.8287 200.629521,65.6259857 200.898423,65.4748714 C201.167324,65.3237571 201.494366,65.2482 201.879549,65.2482 C202.293803,65.2482 202.646282,65.3587714 202.936986,65.5799143 C203.22769,65.8010571 203.423915,66.1327714 203.525662,66.5750571 L205.160873,66.5750571 C205.117268,66.1254 204.997352,65.7273429 204.801127,65.3808857 C204.604901,65.0344286 204.355986,64.7432571 204.05438,64.5073714 C203.752775,64.2714857 203.414831,64.0927286 203.040549,63.9711 C202.666268,63.8494714 202.279268,63.7886571 201.879549,63.7886571 C201.283606,63.7886571 200.74762,63.8955429 200.271592,64.1093143 C199.795563,64.3230857 199.394028,64.6179429 199.066986,64.9938857 C198.739944,65.3698286 198.489211,65.8102714 198.314789,66.3152143 C198.140366,66.8201571 198.053155,67.3674857 198.053155,67.9572 C198.053155,68.5321714 198.140366,69.0684429 198.314789,69.5660143 C198.489211,70.0635857 198.739944,70.4966571 199.066986,70.8652286 C199.394028,71.2338 199.795563,71.5231286 200.271592,71.7332143 C200.74762,71.9433 201.283606,72.0483429 201.879549,72.0483429 Z M211.059746,71.8714286 L211.059746,68.8417714 L213.94862,63.9766286 L212.040873,63.9766286 L210.231239,67.0947429 L208.410704,63.9766286 L206.492056,63.9766286 L209.348225,68.7975429 L209.348225,71.8714286 L211.059746,71.8714286 Z M47.2406479,85.5626286 C47.7203099,85.5626286 48.16,85.4889143 48.5597183,85.3414857 C48.9594366,85.1940571 49.3082817,84.9802857 49.6062535,84.7001714 C49.9042254,84.4200571 50.1440563,84.0809714 50.3257465,83.6829143 C50.5074366,83.2848571 50.6200845,82.8388857 50.6636901,82.345 L49.0066761,82.345 C48.9412676,82.8757429 48.7613944,83.3032857 48.4670563,83.6276286 C48.1727183,83.9519714 47.7639155,84.1141429 47.2406479,84.1141429 C46.8554648,84.1141429 46.5284225,84.0385857 46.2595211,83.8874714 C45.9906197,83.7363571 45.7725915,83.5354857 45.6054366,83.2848571 C45.4382817,83.0342286 45.3165493,82.7522714 45.2402394,82.4389857 C45.1639296,82.1257 45.1257746,81.8032 45.1257746,81.4714857 C45.1257746,81.1250286 45.1639296,80.7896286 45.2402394,80.4652857 C45.3165493,80.1409429 45.4382817,79.8516143 45.6054366,79.5973 C45.7725915,79.3429857 45.9906197,79.1402714 46.2595211,78.9891571 C46.5284225,78.8380429 46.8554648,78.7624857 47.2406479,78.7624857 C47.4514085,78.7624857 47.6530845,78.7975 47.8456761,78.8675286 C48.0382676,78.9375571 48.2108732,79.0352286 48.363493,79.1605429 C48.5161127,79.2858571 48.6432958,79.4314429 48.7450423,79.5973 C48.8467887,79.7631571 48.9121972,79.9456 48.9412676,80.1446286 L50.5982817,80.1446286 C50.5474085,79.6876 50.4238592,79.2821714 50.2276338,78.9283429 C50.0314085,78.5745143 49.782493,78.2778143 49.4808873,78.0382429 C49.1792817,77.7986714 48.8377042,77.6162286 48.4561549,77.4909143 C48.0746056,77.3656 47.6694366,77.3029429 47.2406479,77.3029429 C46.6447042,77.3029429 46.1087183,77.4098286 45.6326901,77.6236 C45.156662,77.8373714 44.7551268,78.1322286 44.4280845,78.5081714 C44.1010423,78.8841143 43.8503099,79.3245571 43.6758873,79.8295 C43.5014648,80.3344429 43.4142535,80.8817714 43.4142535,81.4714857 C43.4142535,82.0464571 43.5014648,82.5827286 43.6758873,83.0803 C43.8503099,83.5778714 44.1010423,84.0109429 44.4280845,84.3795143 C44.7551268,84.7480857 45.156662,85.0374143 45.6326901,85.2475 C46.1087183,85.4575857 46.6447042,85.5626286 47.2406479,85.5626286 Z M55.9847887,85.5626286 C56.588,85.5626286 57.1258028,85.4575857 57.5981972,85.2475 C58.0705915,85.0374143 58.4703099,84.7480857 58.7973521,84.3795143 C59.1243944,84.0109429 59.3751268,83.5778714 59.5495493,83.0803 C59.7239718,82.5827286 59.8111831,82.0464571 59.8111831,81.4714857 C59.8111831,80.8817714 59.7239718,80.3344429 59.5495493,79.8295 C59.3751268,79.3245571 59.1243944,78.8841143 58.7973521,78.5081714 C58.4703099,78.1322286 58.0705915,77.8373714 57.5981972,77.6236 C57.1258028,77.4098286 56.588,77.3029429 55.9847887,77.3029429 C55.3888451,77.3029429 54.8528592,77.4098286 54.376831,77.6236 C53.9008028,77.8373714 53.4992676,78.1322286 53.1722254,78.5081714 C52.8451831,78.8841143 52.5944507,79.3245571 52.4200282,79.8295 C52.2456056,80.3344429 52.1583944,80.8817714 52.1583944,81.4714857 C52.1583944,82.0464571 52.2456056,82.5827286 52.4200282,83.0803 C52.5944507,83.5778714 52.8451831,84.0109429 53.1722254,84.3795143 C53.4992676,84.7480857 53.9008028,85.0374143 54.376831,85.2475 C54.8528592,85.4575857 55.3888451,85.5626286 55.9847887,85.5626286 Z M55.9847887,84.1141429 C55.5996056,84.1141429 55.2725634,84.0385857 55.003662,83.8874714 C54.7347606,83.7363571 54.5167324,83.5354857 54.3495775,83.2848571 C54.1824225,83.0342286 54.0606901,82.7522714 53.9843803,82.4389857 C53.9080704,82.1257 53.8699155,81.8032 53.8699155,81.4714857 C53.8699155,81.1250286 53.9080704,80.7896286 53.9843803,80.4652857 C54.0606901,80.1409429 54.1824225,79.8516143 54.3495775,79.5973 C54.5167324,79.3429857 54.7347606,79.1402714 55.003662,78.9891571 C55.2725634,78.8380429 55.5996056,78.7624857 55.9847887,78.7624857 C56.3699718,78.7624857 56.6970141,78.8380429 56.9659155,78.9891571 C57.2348169,79.1402714 57.4528451,79.3429857 57.62,79.5973 C57.7871549,79.8516143 57.9088873,80.1409429 57.9851972,80.4652857 C58.061507,80.7896286 58.099662,81.1250286 58.099662,81.4714857 C58.099662,81.8032 58.061507,82.1257 57.9851972,82.4389857 C57.9088873,82.7522714 57.7871549,83.0342286 57.62,83.2848571 C57.4528451,83.5354857 57.2348169,83.7363571 56.9659155,83.8874714 C56.6970141,84.0385857 56.3699718,84.1141429 55.9847887,84.1141429 Z M63.246338,85.3857143 L63.246338,79.8460857 L63.2681408,79.8460857 L65.1758873,85.3857143 L66.4949577,85.3857143 L68.4027042,79.7908 L68.424507,79.7908 L68.424507,85.3857143 L70.0270141,85.3857143 L70.0270141,77.4909143 L67.6178028,77.4909143 L65.8953803,82.9199714 L65.8735775,82.9199714 L64.0530423,77.4909143 L61.643831,77.4909143 L61.643831,85.3857143 L63.246338,85.3857143 Z M73.9091268,85.3857143 L73.9091268,82.5550857 L75.7078592,82.5550857 C76.1947887,82.5550857 76.6090423,82.4832143 76.9506197,82.3394714 C77.2921972,82.1957286 77.5701831,82.0059143 77.7845775,81.7700286 C77.9989718,81.5341429 78.1552254,81.2632429 78.253338,80.9573286 C78.3514507,80.6514143 78.400507,80.3399714 78.400507,80.023 C78.400507,79.6986571 78.3514507,79.3853714 78.253338,79.0831429 C78.1552254,78.7809143 77.9989718,78.5118571 77.7845775,78.2759714 C77.5701831,78.0400857 77.2921972,77.8502714 76.9506197,77.7065286 C76.6090423,77.5627857 76.1947887,77.4909143 75.7078592,77.4909143 L72.1976056,77.4909143 L72.1976056,85.3857143 L73.9091268,85.3857143 Z M75.2390986,81.2061143 L73.9091268,81.2061143 L73.9091268,78.8398857 L75.2390986,78.8398857 C75.4353239,78.8398857 75.6242817,78.8546286 75.8059718,78.8841143 C75.987662,78.9136 76.1475493,78.9707286 76.2856338,79.0555 C76.4237183,79.1402714 76.5345493,79.2600571 76.6181268,79.4148571 C76.7017042,79.5696571 76.743493,79.7723714 76.743493,80.023 C76.743493,80.2736286 76.7017042,80.4763429 76.6181268,80.6311429 C76.5345493,80.7859429 76.4237183,80.9057286 76.2856338,80.9905 C76.1475493,81.0752714 75.987662,81.1324 75.8059718,81.1618857 C75.6242817,81.1913714 75.4353239,81.2061143 75.2390986,81.2061143 Z M80.2331549,85.3857143 L80.8436338,83.6276286 L83.7543099,83.6276286 L84.3429859,85.3857143 L86.1199155,85.3857143 L83.2092394,77.4909143 L81.4541127,77.4909143 L78.5107324,85.3857143 L80.2331549,85.3857143 Z M83.3073521,82.3339429 L81.2905915,82.3339429 L82.3044225,79.4369714 L82.3262254,79.4369714 L83.3073521,82.3339429 Z M89.064507,85.3857143 L89.064507,80.1004 L89.0863099,80.1004 L92.3240282,85.3857143 L94.0355493,85.3857143 L94.0355493,77.4909143 L92.4330423,77.4909143 L92.4330423,82.7872857 L92.4112394,82.7872857 L89.1626197,77.4909143 L87.462,77.4909143 L87.462,85.3857143 L89.064507,85.3857143 Z M99.9344225,85.3857143 L99.9344225,82.3560571 L102.823296,77.4909143 L100.915549,77.4909143 L99.1059155,80.6090286 L97.2853803,77.4909143 L95.3667324,77.4909143 L98.2229014,82.3118286 L98.2229014,85.3857143 L99.9344225,85.3857143 Z" id="SCIENTIFICINFORMATIONTECHNOLOGYCOMPANY" fill="#191414" fill-rule="nonzero" opacity="0.498539807"></path>
            </g>
        </g>
    </g>
</svg>