<?xml version="1.0" encoding="UTF-8"?>
<svg width="150px" height="151px" viewBox="0 0 150 151" version="1.1" xmlns="http://www.w3.org/2000/svg" xmlns:xlink="http://www.w3.org/1999/xlink">
    <title>scinteco_icon_blue</title>
    <g id="scinteco_icon_blue" stroke="none" stroke-width="1" fill="none" fill-rule="evenodd">
        <g id="Group-5" fill="#00BDED">
            <path d="M75.0044727,105.007524 C58.4333555,105.007524 45.0012029,91.5819113 45.0012029,75.0107941 C45.0012029,58.439677 58.4333555,45.0075244 75.0044727,45.0075244 C91.5690503,45.0075244 105.001203,58.439677 105.001203,75.0107941 C105.001203,91.5819113 91.5690503,105.007524 75.0044727,105.007524 Z" id="Fill-13"></path>
            <path d="M46.1483685,5.95522162 C84.5862671,-10.5023893 128.582617,8.34887304 144.359567,47.747771 C152.27423,67.4965601 151.766433,89.3016518 143.442089,108.456806 C140.140262,116.054641 131.304341,119.537244 123.706507,116.235418 C116.209976,112.977616 112.71967,104.332311 115.799434,96.804393 L115.927895,96.4998354 C121.094787,84.6102974 121.408833,71.1249646 116.511073,58.9039947 C106.934843,34.9898119 80.7546993,23.7723186 57.9606509,33.5318415 C34.9053201,43.4116773 23.8276231,71.0703941 33.5107944,95.2370256 C38.288255,107.165946 47.3699093,116.224286 58.677208,120.833784 L59.2088598,121.04659 C66.919271,124.076228 70.713787,132.782759 67.6841486,140.49317 C64.6545101,148.203581 55.9479796,151.998097 48.2375684,148.968459 C29.0286265,141.420723 13.6049228,126.225317 5.66215113,106.392879 C-10.0232025,67.2463905 7.97261016,22.3145708 46.1483685,5.95522162 Z" id="Stroke-39" fill-rule="nonzero"></path>
        </g>
    </g>
</svg>