<svg width="41" height="41" xmlns="http://www.w3.org/2000/svg">
    <path d="M39.98 31.525 30.66 22.25c-1.84-1.83-4.585-2.186-6.799-1.1l-8.485-8.444V7.788L5.185.184.09 5.254 7.732 15.39h4.944l8.486 8.443c-1.083 2.202-.732 4.934 1.106 6.764l9.322 9.275a2.97 2.97 0 0 0 4.195 0l4.196-4.174a2.948 2.948 0 0 0 0-4.174zm-13.406-13.5c2.24 0 4.346.872 5.93 2.458l1.536 1.539a11.205 11.205 0 0 0 3.467-2.34 11.421 11.421 0 0 0 3-10.842c-.174-.714-1.068-.96-1.59-.437l-5.89 5.901-5.376-.896-.895-5.385 5.89-5.901c.523-.524.27-1.42-.451-1.603-3.753-.928-7.885.072-10.814 3.006-2.256 2.26-3.317 5.243-3.262 8.218l6.5 6.511a8.609 8.609 0 0 1 1.955-.23zm-8.077 6.219-4.58-4.562L1.604 31.951a5.132 5.132 0 0 0 0 7.28 5.183 5.183 0 0 0 7.311 0l9.985-9.943c-.614-1.601-.8-3.347-.404-5.044zM5.185 37.62a1.96 1.96 0 0 1-1.96-1.95c0-1.08.874-1.95 1.96-1.95a1.95 1.95 0 1 1 0 3.9z" fill="#00BDED" fill-rule="nonzero"/>
</svg>
