<?xml version="1.0" encoding="UTF-8"?>
<svg width="123px" height="123px" viewBox="0 0 123 123" version="1.1" xmlns="http://www.w3.org/2000/svg" xmlns:xlink="http://www.w3.org/1999/xlink">
    <title>Group 20</title>
    <defs>
        <radialGradient cx="50%" cy="50%" fx="50%" fy="50%" r="50%" id="radialGradient-1">
            <stop stop-color="#000000" offset="2%"></stop>
            <stop stop-color="#FFFFFF" offset="100%"></stop>
        </radialGradient>
        <linearGradient x1="85.3483131%" y1="85.3785009%" x2="14.6531451%" y2="14.6833321%" id="linearGradient-2">
            <stop stop-color="#C5CBCC" offset="0%"></stop>
            <stop stop-color="#D7DBDC" offset="9%"></stop>
            <stop stop-color="#E9EBEC" offset="21%"></stop>
            <stop stop-color="#F6F7F7" offset="36%"></stop>
            <stop stop-color="#FDFDFD" offset="56%"></stop>
            <stop stop-color="#FFFFFF" offset="100%"></stop>
        </linearGradient>
        <linearGradient x1="85.3670473%" y1="85.3996737%" x2="14.6492659%" y2="14.6982055%" id="linearGradient-3">
            <stop stop-color="#FFFFFF" offset="0%"></stop>
            <stop stop-color="#FDFDFD" offset="50%"></stop>
            <stop stop-color="#F6F7F7" offset="73%"></stop>
            <stop stop-color="#E9ECEC" offset="89%"></stop>
            <stop stop-color="#DCE0E1" offset="100%"></stop>
        </linearGradient>
        <path d="M13.9999688,2.25 L13.9999688,9.75 C13.9999688,10.9926562 12.992625,12 11.7499688,12 L2.25,12 C1.00734375,12 0,10.9926562 0,9.75 L0,2.25 C0,1.00734375 1.00734375,0 2.25,0 L11.7499688,0 C12.992625,0 13.9999688,1.00734375 13.9999688,2.25 Z M31.0000313,24.75 L31.0000313,17.25 C31.0000313,16.0073438 29.9926875,15 28.7500313,15 L19.2499688,15 C18.0073125,15 16.9999688,16.0073438 16.9999688,17.25 L16.9999688,24.75 C16.9999688,25.9926562 18.0073125,27 19.2499688,27 L28.7499375,27 C29.9926875,27 31.0000313,25.9926562 31.0000313,24.75 L31.0000313,24.75 Z M34.0000313,2.25 L34.0000313,9.75 C34.0000313,10.9926562 35.007375,12 36.2500313,12 L45.75,12 C46.9926563,12 48,10.9926562 48,9.75 L48,2.25 C48,1.00734375 46.9926563,0 45.75,0 L36.2500313,0 C35.007375,0 34.0000313,1.00734375 34.0000313,2.25 L34.0000313,2.25 Z M31.0000313,9.75 L31.0000313,2.25 C31.0000313,1.00734375 29.9926875,0 28.7500313,0 L19.2499688,0 C18.0073125,0 16.9999688,1.00734375 16.9999688,2.25 L16.9999688,9.75 C16.9999688,10.9926562 18.0073125,12 19.2499688,12 L28.7499375,12 C29.9926875,12 31.0000313,10.9926562 31.0000313,9.75 L31.0000313,9.75 Z M11.7499688,15 L2.25,15 C1.00734375,15 0,16.0073438 0,17.25 L0,24.75 C0,25.9926562 1.00734375,27 2.25,27 L11.7499688,27 C12.992625,27 13.9999688,25.9926562 13.9999688,24.75 L13.9999688,17.25 C13.9999688,16.0073438 12.992625,15 11.7499688,15 L11.7499688,15 Z M0,32.25 L0,39.75 C0,40.9926562 1.00734375,42 2.25,42 L11.7499688,42 C12.992625,42 13.9999688,40.9926562 13.9999688,39.75 L13.9999688,32.25 C13.9999688,31.0073438 12.992625,30 11.7499688,30 L2.25,30 C1.00734375,30 0,31.0073438 0,32.25 Z M36.2500313,27 L45.75,27 C46.9926563,27 48,25.9926562 48,24.75 L48,17.25 C48,16.0073438 46.9926563,15 45.75,15 L36.2500313,15 C35.007375,15 34.0000313,16.0073438 34.0000313,17.25 L34.0000313,24.75 C34.0000313,25.9926562 35.007375,27 36.2500313,27 Z M36.2500313,42 L45.75,42 C46.9926563,42 48,40.9926562 48,39.75 L48,32.25 C48,31.0073438 46.9926563,30 45.75,30 L36.2500313,30 C35.007375,30 34.0000313,31.0073438 34.0000313,32.25 L34.0000313,39.75 C34.0000313,40.9926562 35.007375,42 36.2500313,42 Z M16.9999688,32.25 L16.9999688,39.75 C16.9999688,40.9926562 18.0073125,42 19.2499688,42 L28.7499375,42 C29.9925938,42 30.9999375,40.9926562 30.9999375,39.75 L30.9999375,32.25 C30.9999375,31.0073438 29.9925938,30 28.7499375,30 L19.2499688,30 C18.0073125,30 16.9999688,31.0073438 16.9999688,32.25 Z" id="path-4"></path>
        <filter x="-4.2%" y="-4.8%" width="108.3%" height="109.5%" filterUnits="objectBoundingBox" id="filter-5">
            <feGaussianBlur stdDeviation="1.5" in="SourceAlpha" result="shadowBlurInner1"></feGaussianBlur>
            <feOffset dx="0" dy="1" in="shadowBlurInner1" result="shadowOffsetInner1"></feOffset>
            <feComposite in="shadowOffsetInner1" in2="SourceAlpha" operator="arithmetic" k2="-1" k3="1" result="shadowInnerInner1"></feComposite>
            <feColorMatrix values="0 0 0 0 0   0 0 0 0 0   0 0 0 0 0  0 0 0 0.5 0" type="matrix" in="shadowInnerInner1"></feColorMatrix>
        </filter>
    </defs>
    <g id="Single-page" stroke="none" stroke-width="1" fill="none" fill-rule="evenodd">
        <g id="01-Improve---acop11---single-page-04---desktop-large" transform="translate(-560.000000, -5947.000000)" fill-rule="nonzero">
            <g id="Layer_3-Copy-3" transform="translate(560.000000, 5947.000000)">
                <path d="M117.135002,58.685 C117.126716,90.8177342 91.0727374,116.860521 58.9400026,116.855 C26.8072677,116.849477 0.762241604,90.7977365 0.765002148,58.6650013 C0.767762692,26.5322661 26.8172647,0.485 58.95,0.485 C74.3842207,0.485 89.1860768,6.61724627 100.098312,17.5322949 C111.010548,28.4473435 117.138979,43.2507798 117.135002,58.685 Z" id="Path" fill="#00BDED"></path>
                <circle id="Oval" fill="url(#radialGradient-1)" style="mix-blend-mode: multiply;" cx="65.355" cy="65.675" r="56.865"></circle>
                <path d="M106.665002,58.985 C106.671067,78.1578743 95.1262757,95.4462373 77.4145907,102.787583 C59.7029058,110.128929 39.3128609,106.07729 25.7534455,92.5221651 C12.1940301,78.9670407 8.13593729,58.5782792 15.4716769,40.8642716 C22.8074166,23.1502639 40.0921248,11.5999976 59.265,11.5999976 C71.8348821,11.5960209 83.8912962,16.5865982 92.7809519,25.4734408 C101.670608,34.3602834 106.665002,46.4151173 106.665002,58.985 Z" id="Path" fill="url(#linearGradient-2)"></path>
                <path d="M105.24,58.985 C105.24,84.3762914 84.6562914,104.96 59.265,104.96 C33.8737086,104.96 13.29,84.3762914 13.29,58.985 C13.29,33.5937086 33.8737086,13.01 59.265,13.01 C84.6562914,13.01 105.24,33.5937086 105.24,58.985 L105.24,58.985 Z" id="Path" fill="url(#linearGradient-3)"></path>
                <g id="Shape" transform="translate(35.000000, 38.000000)">
                    <use fill="#00BDED" xlink:href="#path-4"></use>
                    <use fill="black" fill-opacity="1" filter="url(#filter-5)" xlink:href="#path-4"></use>
                </g>
            </g>
        </g>
    </g>
</svg>