<svg width="45" height="37" xmlns="http://www.w3.org/2000/svg">
    <path d="M19.898 23.112c0-4.562 2.723-8.482 6.602-10.207v-.946h-9.353a1.667 1.667 0 0 1-1.65-1.673V.806H1.74a1.635 1.635 0 0 0-1.168.49A1.68 1.68 0 0 0 .09 2.478v32.343c0 .444.173.87.483 1.185.31.314.73.49 1.168.488H24.85c.438.002.858-.174 1.168-.488.31-.314.483-.74.482-1.185V33.32a11.164 11.164 0 0 1-6.602-10.208zM26.5 9.304c0-.442-.173-.866-.481-1.178l-6.733-6.831a1.64 1.64 0 0 0-1.17-.488h-.419v8.922H26.5v-.425zm17.284 23.71-5.324-5.396a8.92 8.92 0 0 0 1.245-4.506c0-4.928-3.941-8.922-8.803-8.922-4.862 0-8.803 3.994-8.803 8.922 0 4.928 3.941 8.922 8.803 8.922 1.63 0 3.137-.48 4.446-1.262l5.324 5.396a1.093 1.093 0 0 0 1.557 0l1.555-1.576a1.123 1.123 0 0 0 0-1.578zm-12.882-5.44c-2.431 0-4.402-1.998-4.402-4.462 0-2.464 1.971-4.461 4.402-4.461 2.43 0 4.402 1.997 4.402 4.461 0 2.464-1.971 4.461-4.402 4.461z" fill="#00BDED" fill-rule="nonzero"/>
</svg>
