<?xml version="1.0" encoding="UTF-8"?>
<svg width="123px" height="123px" viewBox="0 0 123 123" version="1.1" xmlns="http://www.w3.org/2000/svg" xmlns:xlink="http://www.w3.org/1999/xlink">
    <title>Group 21</title>
    <defs>
        <radialGradient cx="50%" cy="50%" fx="50%" fy="50%" r="50%" id="radialGradient-1">
            <stop stop-color="#000000" offset="2%"></stop>
            <stop stop-color="#FFFFFF" offset="100%"></stop>
        </radialGradient>
        <linearGradient x1="85.3483131%" y1="85.3785009%" x2="14.6531451%" y2="14.6833321%" id="linearGradient-2">
            <stop stop-color="#C5CBCC" offset="0%"></stop>
            <stop stop-color="#D7DBDC" offset="9%"></stop>
            <stop stop-color="#E9EBEC" offset="21%"></stop>
            <stop stop-color="#F6F7F7" offset="36%"></stop>
            <stop stop-color="#FDFDFD" offset="56%"></stop>
            <stop stop-color="#FFFFFF" offset="100%"></stop>
        </linearGradient>
        <linearGradient x1="85.3670473%" y1="85.3996737%" x2="14.6492659%" y2="14.6982055%" id="linearGradient-3">
            <stop stop-color="#FFFFFF" offset="0%"></stop>
            <stop stop-color="#FDFDFD" offset="50%"></stop>
            <stop stop-color="#F6F7F7" offset="73%"></stop>
            <stop stop-color="#E9ECEC" offset="89%"></stop>
            <stop stop-color="#DCE0E1" offset="100%"></stop>
        </linearGradient>
        <path d="M82.9379364,72.6388048 L71.5018311,61.2043746 C69.2458616,58.9487355 65.8765565,58.5093253 63.1615802,59.8470852 L52.7509156,49.4379455 L52.7509156,43.3740846 L40.2503052,34 L34,40.2493897 L43.3754578,52.7481691 L49.440207,52.7481691 L59.8508716,63.1573089 C58.5226818,65.8718875 58.9523903,69.2406992 61.2083598,71.4963382 L72.6444651,82.9307685 C74.0703159,84.3564105 76.375116,84.3564105 77.7912007,82.9307685 L82.9379364,77.7847866 C84.3540212,76.3591446 84.3540212,74.0546822 82.9379364,72.6388048 L82.9379364,72.6388048 Z M66.4907104,55.9946108 C69.239307,55.9946108 71.8227936,57.0702681 73.7652648,59.0260086 L75.6494618,60.9230769 C77.184014,60.2483464 78.6408673,59.309591 79.9034736,58.0383596 C83.5067575,54.4104609 84.7305143,49.3059781 83.5844563,44.670873 C83.3707845,43.7907898 82.2732883,43.48765 81.6322729,44.1330444 L74.4062803,51.4083992 L67.8115908,50.3034058 L66.7140946,43.6636666 L73.9400872,36.3883118 C74.5811027,35.7429174 74.2703073,34.637924 73.3864829,34.4130139 C68.7828263,33.2689056 63.7129767,34.5010222 60.1194051,38.1191422 C57.3513837,40.9060725 56.0499281,44.5828647 56.1179145,48.2498782 L64.0917585,56.2781931 C64.8784593,56.0923978 65.6942972,55.9946108 66.4907104,55.9946108 Z M56.5813911,63.6622217 L50.9620588,58.0384615 L35.8582448,73.1640952 C33.3805851,75.6437073 33.3805851,79.6606789 35.8582448,82.1402909 C38.3359046,84.619903 42.3497134,84.619903 44.8273732,82.1402909 L57.0769231,69.8810888 C56.3237145,67.9073176 56.0957698,65.7550143 56.5813911,63.6622217 L56.5813911,63.6622217 Z M40.25,80.1538462 C38.9278846,80.1538462 37.8461538,79.0721154 37.8461538,77.75 C37.8461538,76.4178686 38.9178686,75.3461538 40.25,75.3461538 C41.5821314,75.3461538 42.6538462,76.4178686 42.6538462,77.75 C42.6538462,79.0721154 41.5821314,80.1538462 40.25,80.1538462 Z" id="path-4"></path>
        <filter x="-4.0%" y="-4.0%" width="108.0%" height="108.0%" filterUnits="objectBoundingBox" id="filter-5">
            <feGaussianBlur stdDeviation="1.5" in="SourceAlpha" result="shadowBlurInner1"></feGaussianBlur>
            <feOffset dx="0" dy="1" in="shadowBlurInner1" result="shadowOffsetInner1"></feOffset>
            <feComposite in="shadowOffsetInner1" in2="SourceAlpha" operator="arithmetic" k2="-1" k3="1" result="shadowInnerInner1"></feComposite>
            <feColorMatrix values="0 0 0 0 0   0 0 0 0 0   0 0 0 0 0  0 0 0 0.5 0" type="matrix" in="shadowInnerInner1"></feColorMatrix>
        </filter>
    </defs>
    <g id="Single-page" stroke="none" stroke-width="1" fill="none" fill-rule="evenodd">
        <g id="01-Improve---acop11---single-page-04---desktop-large" transform="translate(-1000.000000, -5947.000000)" fill-rule="nonzero">
            <g id="Layer_3-Copy-8" transform="translate(1000.000000, 5947.000000)">
                <path d="M117.135002,58.685 C117.126716,90.8177342 91.0727374,116.860521 58.9400026,116.855 C26.8072677,116.849477 0.762241604,90.7977365 0.765002148,58.6650013 C0.767762692,26.5322661 26.8172647,0.485 58.95,0.485 C74.3842207,0.485 89.1860768,6.61724627 100.098312,17.5322949 C111.010548,28.4473435 117.138979,43.2507798 117.135002,58.685 Z" id="Path" fill="#00BDED"></path>
                <circle id="Oval" fill="url(#radialGradient-1)" style="mix-blend-mode: multiply;" cx="65.355" cy="65.675" r="56.865"></circle>
                <path d="M106.665002,58.985 C106.671067,78.1578743 95.1262757,95.4462373 77.4145907,102.787583 C59.7029058,110.128929 39.3128609,106.07729 25.7534455,92.5221651 C12.1940301,78.9670407 8.13593729,58.5782792 15.4716769,40.8642716 C22.8074166,23.1502639 40.0921248,11.5999976 59.265,11.5999976 C71.8348821,11.5960209 83.8912962,16.5865982 92.7809519,25.4734408 C101.670608,34.3602834 106.665002,46.4151173 106.665002,58.985 Z" id="Path" fill="url(#linearGradient-2)"></path>
                <path d="M105.24,58.985 C105.24,84.3762914 84.6562914,104.96 59.265,104.96 C33.8737086,104.96 13.29,84.3762914 13.29,58.985 C13.29,33.5937086 33.8737086,13.01 59.265,13.01 C84.6562914,13.01 105.24,33.5937086 105.24,58.985 L105.24,58.985 Z" id="Path" fill="url(#linearGradient-3)"></path>
                <g id="Shape">
                    <use fill="#00BDED" xlink:href="#path-4"></use>
                    <use fill="black" fill-opacity="1" filter="url(#filter-5)" xlink:href="#path-4"></use>
                </g>
            </g>
        </g>
    </g>
</svg>