<?xml version="1.0" encoding="UTF-8" standalone="no"?>
<svg
   width="550"
   height="559.99957"
   viewBox="0 0 550 559.99957"
   version="1.1"
   id="svg305"
   sodipodi:docname="icon-bg-scinteco-cropped.svg"
   inkscape:version="1.1 (c68e22c387, 2021-05-23)"
   xmlns:inkscape="http://www.inkscape.org/namespaces/inkscape"
   xmlns:sodipodi="http://sodipodi.sourceforge.net/DTD/sodipodi-0.dtd"
   xmlns="http://www.w3.org/2000/svg"
   xmlns:svg="http://www.w3.org/2000/svg">
  <defs
     id="defs309" />
  <sodipodi:namedview
     id="namedview307"
     pagecolor="#ffffff"
     bordercolor="#666666"
     borderopacity="1.0"
     inkscape:pageshadow="2"
     inkscape:pageopacity="0.0"
     inkscape:pagecheckerboard="0"
     showgrid="false"
     fit-margin-top="60"
     fit-margin-right="-60"
     fit-margin-bottom="-105"
     fit-margin-left="0"
     inkscape:zoom="1.4429752"
     inkscape:cx="98.061283"
     inkscape:cy="362.7921"
     inkscape:window-width="1720"
     inkscape:window-height="1377"
     inkscape:window-x="1712"
     inkscape:window-y="-8"
     inkscape:window-maximized="0"
     inkscape:current-layer="svg305" />
  <g
     fill="none"
     fill-rule="evenodd"
     opacity="0.2"
     id="g303"
     transform="translate(-8.4665213e-5,59.999672)">
    <g
       fill="#f7f9fb"
       fill-rule="nonzero"
       id="g301">
      <g
         id="g299">
        <path
           d="M 308.013,429 C 241.176,429 187,374.85 187,308.013 187,241.176 241.176,187 308.013,187 374.823,187 429,241.176 429,308.013 429,374.85 374.824,429 308.013,429 Z"
           id="path295" />
        <path
           d="m 187.667,24.018 c 156.312,-66.374 335.228,9.653 399.387,168.55 32.186,79.647 30.12,167.588 -3.731,244.84 -13.428,30.643 -49.36,44.688 -80.257,31.372 -30.486,-13.139 -44.68,-48.005 -32.155,-78.366 l 0.522,-1.228 c 21.012,-47.95 22.29,-102.337 2.372,-151.625 C 434.862,141.115 328.398,95.874 235.703,135.235 141.946,175.08 96.898,286.629 136.275,384.093 c 19.428,48.11 56.36,84.642 102.342,103.232 l 2.162,0.859 c 31.355,12.218 46.786,47.332 34.466,78.428 -12.32,31.096 -47.727,46.4 -79.082,34.181 C 118.048,570.353 55.326,509.07 23.026,429.085 -40.76,271.206 32.42,89.995 187.667,24.018 Z"
           id="path297" />
      </g>
    </g>
  </g>
</svg>
