<svg xmlns="http://www.w3.org/2000/svg" width="637" height="668" viewBox="0 0 637 668">
    <g fill="none" fill-rule="evenodd" opacity=".2">
        <g fill="#F7F9FB">
            <g>
                <path d="M409.507 43.218v117.189c69.959 33.913 118.325 105.5 118.325 188.575 0 115.782-93.756 209.652-209.31 209.652-115.642 0-209.31-93.87-209.31-209.652 0-83.074 48.322-154.662 118.26-188.575V43.218C95.908 82.467 0 204.473 0 348.982 0 525.222 142.54 668 318.522 668 494.412 668 637 525.223 637 348.982c0-144.51-95.903-266.515-227.493-305.764m-27.12 280.716c0 26.583-28.358 48.117-63.421 48.117-35.03 0-63.414-21.534-63.414-48.117V48.073C255.552 21.533 283.935 0 318.966 0c35.063 0 63.422 21.534 63.422 48.073v275.861" transform="translate(-858.000000, -160.000000) translate(858.000000, 160.000000)"/>
            </g>
        </g>
    </g>
</svg>
