<svg width="41" height="41" xmlns="http://www.w3.org/2000/svg">
    <path d="M20.446 40.02c3.584 0 6.9-.892 9.95-2.675a20.058 20.058 0 0 0 7.261-7.226c1.792-3.034 2.688-6.334 2.688-9.9 0-3.62-.896-6.933-2.688-9.94-1.792-3.008-4.212-5.403-7.261-7.187C27.346 1.31 24.03.418 20.446.418c-2.62 0-5.108.479-7.462 1.437a19.518 19.518 0 0 0-6.258 4.072L2.714 1.935c-.375-.373-.83-.453-1.364-.24-.535.213-.803.612-.803 1.198V14.47c0 .373.12.679.361.918.241.24.549.36.923.36h11.635c.588 0 .99-.267 1.203-.799.214-.532.134-.985-.24-1.357L10.336 9.52a14.235 14.235 0 0 1 4.614-2.954 14.725 14.725 0 0 1 5.496-1.038c2.675 0 5.149.652 7.422 1.956a14.37 14.37 0 0 1 5.376 5.35c1.31 2.261 1.966 4.723 1.966 7.385 0 2.661-.655 5.123-1.966 7.385a14.37 14.37 0 0 1-5.376 5.35c-2.273 1.304-4.747 1.956-7.422 1.956-3.423 0-6.472-1.065-9.147-3.194-.374-.266-.815-.386-1.324-.36-.508.028-.922.2-1.243.52l-.883.878c-.428.426-.628.918-.602 1.477.027.56.254 1.025.682 1.398a20.95 20.95 0 0 0 5.858 3.233c2.14.772 4.36 1.158 6.66 1.158zm2.648-13.174c.428.32.91.439 1.445.36.534-.08.962-.334 1.283-.76l.803-.958a1.98 1.98 0 0 0 .4-1.437 1.747 1.747 0 0 0-.721-1.277l-3.29-2.555v-8.304c0-.532-.187-.985-.562-1.357a1.862 1.862 0 0 0-1.364-.56h-1.283c-.535 0-.99.187-1.365.56a1.843 1.843 0 0 0-.561 1.357v10.859l5.215 4.072z" fill="#00BDED" fill-rule="nonzero"/>
</svg>
