<svg width="51" height="36" xmlns="http://www.w3.org/2000/svg">
    <path d="M27.83 16.52h-5.134v-4.624h5.135v4.623zm0-15.902h-5.134v4.724h5.135V.618zm6.076 11.27H28.77v4.624h5.135v-4.624zM21.763 6.276h-5.135v4.678h5.135V6.276zm6.068 0h-5.135v4.678h5.135V6.276zm21.503 7.784c-1.119-.755-3.698-1.028-5.679-.654-.256-1.868-1.297-3.495-3.193-4.958l-1.087-.724-.723 1.09c-1.43 2.163-1.818 5.728-.287 8.079-.676.366-2.005.864-3.76.833H.835c-.676 3.954.45 9.09 3.418 12.617 2.882 3.417 7.201 5.152 12.85 5.152 12.227 0 21.277-5.643 25.511-15.893 1.663.03 5.252.007 7.093-3.519.116-.194.513-1.027.66-1.33l-1.033-.693zM9.629 11.888H4.502v4.624h5.135v-4.624h-.008zm6.067 0h-5.135v4.624h5.135v-4.624zm6.067 0h-5.135v4.624h5.135v-4.624zm-6.067-5.612h-5.135v4.678h5.135V6.276z" fill="#00BDED" fill-rule="nonzero"/>
</svg>
