<?xml version="1.0" encoding="UTF-8" standalone="no"?>
<svg
   xmlns:dc="http://purl.org/dc/elements/1.1/"
   xmlns:cc="http://creativecommons.org/ns#"
   xmlns:rdf="http://www.w3.org/1999/02/22-rdf-syntax-ns#"
   xmlns:svg="http://www.w3.org/2000/svg"
   xmlns="http://www.w3.org/2000/svg"
   xmlns:sodipodi="http://sodipodi.sourceforge.net/DTD/sodipodi-0.dtd"
   xmlns:inkscape="http://www.inkscape.org/namespaces/inkscape"
   width="582"
   height="548"
   viewBox="0 0 582 548"
   version="1.1"
   id="svg10"
   sodipodi:docname="icon-bg-improve-cropped.svg"
   inkscape:version="1.0.1 (3bc2e813f5, 2020-09-07)">
  <metadata
     id="metadata16">
    <rdf:RDF>
      <cc:Work
         rdf:about="">
        <dc:format>image/svg+xml</dc:format>
        <dc:type
           rdf:resource="http://purl.org/dc/dcmitype/StillImage" />
        <dc:title></dc:title>
      </cc:Work>
    </rdf:RDF>
  </metadata>
  <defs
     id="defs14" />
  <sodipodi:namedview
     pagecolor="#ffffff"
     bordercolor="#666666"
     borderopacity="1"
     objecttolerance="10"
     gridtolerance="10"
     guidetolerance="10"
     inkscape:pageopacity="0"
     inkscape:pageshadow="2"
     inkscape:window-width="1920"
     inkscape:window-height="1017"
     id="namedview12"
     showgrid="false"
     lock-margins="false"
     inkscape:zoom="1.2724551"
     inkscape:cx="318.5"
     inkscape:cy="394"
     inkscape:window-x="-8"
     inkscape:window-y="-8"
     inkscape:window-maximized="1"
     inkscape:current-layer="svg10"
     fit-margin-top="60"
     fit-margin-left="-2.7755576e-17"
     fit-margin-right="-55"
     fit-margin-bottom="-180" />
  <g
     fill="none"
     fill-rule="evenodd"
     opacity="0.2"
     id="g8"
     transform="translate(0,60)">
    <g
       fill="#F7F9FB"
       id="g6">
      <g
         id="g4">
        <path
           d="m 409.507,43.218 v 117.189 c 69.959,33.913 118.325,105.5 118.325,188.575 0,115.782 -93.756,209.652 -209.31,209.652 -115.642,0 -209.31,-93.87 -209.31,-209.652 0,-83.074 48.322,-154.662 118.26,-188.575 V 43.218 C 95.908,82.467 0,204.473 0,348.982 0,525.222 142.54,668 318.522,668 494.412,668 637,525.223 637,348.982 637,204.472 541.097,82.467 409.507,43.218 m -27.12,280.716 c 0,26.583 -28.358,48.117 -63.421,48.117 -35.03,0 -63.414,-21.534 -63.414,-48.117 V 48.073 C 255.552,21.533 283.935,0 318.966,0 c 35.063,0 63.422,21.534 63.422,48.073 v 275.861"
           id="path2" />
      </g>
    </g>
  </g>
</svg>
