<svg width="41" height="35" xmlns="http://www.w3.org/2000/svg">
    <path d="M12.317 2.254v6.083a1.83 1.83 0 0 1-1.834 1.825H2.74A1.83 1.83 0 0 1 .906 8.337V2.254A1.83 1.83 0 0 1 2.74.429h7.743a1.83 1.83 0 0 1 1.834 1.825zm13.857 18.25V14.42a1.83 1.83 0 0 0-1.834-1.825h-7.744a1.83 1.83 0 0 0-1.834 1.825v6.084a1.83 1.83 0 0 0 1.834 1.825h7.744a1.83 1.83 0 0 0 1.834-1.825zm2.446-18.25v6.083a1.83 1.83 0 0 0 1.834 1.825h7.743a1.83 1.83 0 0 0 1.834-1.825V2.254A1.83 1.83 0 0 0 38.197.429h-7.743a1.83 1.83 0 0 0-1.834 1.825zm-2.446 6.083V2.254A1.83 1.83 0 0 0 24.34.429h-7.744a1.83 1.83 0 0 0-1.834 1.825v6.083a1.83 1.83 0 0 0 1.834 1.825h7.744a1.83 1.83 0 0 0 1.834-1.825zm-15.69 4.258H2.74A1.83 1.83 0 0 0 .906 14.42v6.084a1.83 1.83 0 0 0 1.834 1.825h7.743a1.83 1.83 0 0 0 1.834-1.825V14.42a1.83 1.83 0 0 0-1.834-1.825zM.905 26.587v6.083a1.83 1.83 0 0 0 1.834 1.825h7.743a1.83 1.83 0 0 0 1.834-1.825v-6.083a1.83 1.83 0 0 0-1.834-1.825H2.74a1.83 1.83 0 0 0-1.834 1.825zm29.548-4.258h7.743a1.83 1.83 0 0 0 1.834-1.825V14.42a1.83 1.83 0 0 0-1.834-1.825h-7.743a1.83 1.83 0 0 0-1.834 1.825v6.084a1.83 1.83 0 0 0 1.834 1.825zm0 12.166h7.743a1.83 1.83 0 0 0 1.834-1.825v-6.083a1.83 1.83 0 0 0-1.834-1.825h-7.743a1.83 1.83 0 0 0-1.834 1.825v6.083a1.83 1.83 0 0 0 1.834 1.825zm-15.692-7.908v6.083a1.83 1.83 0 0 0 1.834 1.825h7.744a1.83 1.83 0 0 0 1.834-1.825v-6.083a1.83 1.83 0 0 0-1.834-1.825h-7.744a1.83 1.83 0 0 0-1.834 1.825z" fill="#00BDED" fill-rule="nonzero"/>
</svg>
