<?xml version="1.0" encoding="UTF-8"?>
<svg width="123px" height="123px" viewBox="0 0 123 123" version="1.1" xmlns="http://www.w3.org/2000/svg" xmlns:xlink="http://www.w3.org/1999/xlink">
    <title>Group 17</title>
    <defs>
        <radialGradient cx="50%" cy="50%" fx="50%" fy="50%" r="50%" id="radialGradient-1">
            <stop stop-color="#000000" offset="2%"></stop>
            <stop stop-color="#FFFFFF" offset="100%"></stop>
        </radialGradient>
        <linearGradient x1="85.3483131%" y1="85.3785009%" x2="14.6531451%" y2="14.6833321%" id="linearGradient-2">
            <stop stop-color="#C5CBCC" offset="0%"></stop>
            <stop stop-color="#D7DBDC" offset="9%"></stop>
            <stop stop-color="#E9EBEC" offset="21%"></stop>
            <stop stop-color="#F6F7F7" offset="36%"></stop>
            <stop stop-color="#FDFDFD" offset="56%"></stop>
            <stop stop-color="#FFFFFF" offset="100%"></stop>
        </linearGradient>
        <linearGradient x1="85.3670473%" y1="85.3996737%" x2="14.6492659%" y2="14.6982055%" id="linearGradient-3">
            <stop stop-color="#FFFFFF" offset="0%"></stop>
            <stop stop-color="#FDFDFD" offset="50%"></stop>
            <stop stop-color="#F6F7F7" offset="73%"></stop>
            <stop stop-color="#E9ECEC" offset="89%"></stop>
            <stop stop-color="#DCE0E1" offset="100%"></stop>
        </linearGradient>
        <path d="M51.7554375,76.8220196 C51.7566642,77.3867472 51.9256083,77.9386122 52.2411875,78.4087476 L53.790875,80.7169606 C54.2648438,81.4276638 55.3469063,82 56.205125,82 L61.7966875,82 C62.6549062,82 63.7369688,81.4276638 64.2109375,80.7169606 L65.7597188,78.4087476 C66.0541293,77.9286837 66.2226768,77.3832028 66.25,76.8220196 L66.25,73.3772206 L51.75,73.3772206 L51.7554375,76.8220196 Z M58.9501562,36.0000813 C49.7055,36.0280161 43.0499846,43.4576048 43.0499846,51.8135336 C43.0446164,55.6419332 44.4482526,59.3407602 46.997625,62.2162156 C48.49475,63.9098635 50.8365,67.4472067 51.7291563,70.4319804 C51.7291563,70.457138 51.7355,70.4796002 51.739125,70.5020624 L66.260875,70.5020624 C66.260875,70.4796002 66.2672187,70.457138 66.2708437,70.4319804 C67.1635,67.4472067 69.50525,63.9098635 71.002375,62.2162156 C73.5517474,59.3407602 74.9553836,55.6419332 74.9500154,51.8135336 C74.9500154,43.064966 67.7824687,35.9723099 58.9501562,36.0000813 Z M59,44.6256379 C54.9977989,44.6300943 51.7544949,47.8456157 51.75,51.8135336 C51.75,52.6074866 51.1008129,53.2511127 50.3,53.2511127 C49.4991871,53.2511127 48.85,52.6074866 48.85,51.8135336 C48.8559938,46.2583256 53.3967944,41.756422 59,41.7504796 C59.8008129,41.7504796 60.45,42.3941057 60.45,43.1880587 C60.45,43.9820118 59.8008129,44.6256379 59,44.6256379 Z M40.15,53.2511127 C40.15,52.0601831 39.1762193,51.094744 37.975,51.094744 L32.175,51.094744 C30.9737807,51.094744 30,52.0601831 30,53.2511127 C30,54.4420422 30.9737807,55.4074814 32.175,55.4074814 L37.975,55.4074814 C39.1762193,55.4074814 40.15,54.4420422 40.15,53.2511127 Z M85.825,51.094744 L80.025,51.094744 C78.8237807,51.094744 77.85,52.0601831 77.85,53.2511127 C77.85,54.4420422 78.8237807,55.4074814 80.025,55.4074814 L85.825,55.4074814 C87.0262193,55.4074814 88,54.4420422 88,53.2511127 C88,52.0601831 87.0262193,51.094744 85.825,51.094744 Z M41.879125,40.961608 L36.8566875,38.0864498 C36.1828753,37.6842482 35.3425415,37.674037 34.658989,38.0597449 C33.9754365,38.4454528 33.5551682,39.1669834 33.5598353,39.9467411 C33.5645807,40.7264989 33.9935282,41.4429915 34.6816875,41.8205616 L39.704125,44.6957198 C40.3779372,45.0979214 41.218271,45.1081326 41.9018235,44.7224247 C42.585376,44.3367168 43.0056443,43.6151862 43.0009772,42.8354285 C42.9962318,42.0556707 42.5672843,41.3391782 41.879125,40.961608 L41.879125,40.961608 Z M83.3183125,64.6816638 L78.295875,61.8065055 C77.6220628,61.4043039 76.781729,61.3940928 76.0981765,61.7798007 C75.414624,62.1655086 74.9943557,62.8870392 74.9990228,63.6667969 C75.0037682,64.4465547 75.4327157,65.1630472 76.120875,65.5406174 L81.1433125,68.4157756 C82.1807946,68.9850076 83.4869846,68.6254577 84.0799613,67.6074158 C84.6729379,66.5893739 84.3341647,65.2880306 83.3183125,64.6816638 L83.3183125,64.6816638 Z M39.704125,61.8065055 L34.6816875,64.6816638 C33.9935282,65.0592339 33.5645807,65.7757265 33.5598353,66.5554842 C33.5551682,67.335242 33.9754365,68.0567726 34.658989,68.4424805 C35.3425415,68.8281884 36.1828753,68.8179772 36.8566875,68.4157756 L41.879125,65.5406174 C42.8949772,64.9342505 43.2337504,63.6329073 42.6407738,62.6148653 C42.0477971,61.5968234 40.7416071,61.2372736 39.704125,61.8065055 L39.704125,61.8065055 Z M77.2101875,44.9850366 C77.5921308,44.9857597 77.967419,44.88592 78.2976875,44.6957198 L83.320125,41.8205616 C84.3359772,41.2141948 84.6747504,39.9128515 84.0817738,38.8948096 C83.4887971,37.8767676 82.1826071,37.5172178 81.145125,38.0864498 L76.1226875,40.961608 C75.2705968,41.4497812 74.8553009,42.4443819 75.1100364,43.386827 C75.3647718,44.329272 76.2260598,44.9847083 77.2101875,44.9850366 L77.2101875,44.9850366 Z" id="path-4"></path>
        <filter x="-3.4%" y="-4.3%" width="106.9%" height="108.7%" filterUnits="objectBoundingBox" id="filter-5">
            <feGaussianBlur stdDeviation="1.5" in="SourceAlpha" result="shadowBlurInner1"></feGaussianBlur>
            <feOffset dx="0" dy="1" in="shadowBlurInner1" result="shadowOffsetInner1"></feOffset>
            <feComposite in="shadowOffsetInner1" in2="SourceAlpha" operator="arithmetic" k2="-1" k3="1" result="shadowInnerInner1"></feComposite>
            <feColorMatrix values="0 0 0 0 0   0 0 0 0 0   0 0 0 0 0  0 0 0 0.5 0" type="matrix" in="shadowInnerInner1"></feColorMatrix>
        </filter>
    </defs>
    <g id="Single-page" stroke="none" stroke-width="1" fill="none" fill-rule="evenodd">
        <g id="01-Improve---acop11---single-page-04---desktop-large" transform="translate(-560.000000, -5332.000000)" fill-rule="nonzero">
            <g id="Layer_3-Copy-4" transform="translate(560.000000, 5332.000000)">
                <path d="M117.135002,58.685 C117.126716,90.8177342 91.0727374,116.860521 58.9400026,116.855 C26.8072677,116.849477 0.762241604,90.7977365 0.765002148,58.6650013 C0.767762692,26.5322661 26.8172647,0.485 58.95,0.485 C74.3842207,0.485 89.1860768,6.61724627 100.098312,17.5322949 C111.010548,28.4473435 117.138979,43.2507798 117.135002,58.685 Z" id="Path" fill="#00BDED"></path>
                <circle id="Oval" fill="url(#radialGradient-1)" style="mix-blend-mode: multiply;" cx="65.355" cy="65.675" r="56.865"></circle>
                <path d="M106.665002,58.985 C106.671067,78.1578743 95.1262757,95.4462373 77.4145907,102.787583 C59.7029058,110.128929 39.3128609,106.07729 25.7534455,92.5221651 C12.1940301,78.9670407 8.13593729,58.5782792 15.4716769,40.8642716 C22.8074166,23.1502639 40.0921248,11.5999976 59.265,11.5999976 C71.8348821,11.5960209 83.8912962,16.5865982 92.7809519,25.4734408 C101.670608,34.3602834 106.665002,46.4151173 106.665002,58.985 Z" id="Path" fill="url(#linearGradient-2)"></path>
                <path d="M59.265,104.96 C33.8737086,104.96 13.29,84.3762914 13.29,58.985 C13.29,33.5937086 33.8737086,13.01 59.265,13.01 C84.6562914,13.01 105.24,33.5937086 105.24,58.985 C105.24,84.3762914 84.6562914,104.96 59.265,104.96 Z" id="Path" fill="url(#linearGradient-3)"></path>
                <g id="Shape">
                    <use fill="#00BDED" xlink:href="#path-4"></use>
                    <use fill="black" fill-opacity="1" filter="url(#filter-5)" xlink:href="#path-4"></use>
                </g>
            </g>
        </g>
    </g>
</svg>