<svg xmlns="http://www.w3.org/2000/svg" width="730" height="730" viewBox="0 0 730 730">
    <g fill="none" fill-rule="evenodd" opacity=".2">
        <g fill="#F7F8FC" fill-rule="nonzero">
            <g>
                <path d="M707.188 319.375h-72.544C615.38 204.828 525.172 114.619 410.625 95.356V22.813C410.625 10.209 400.416 0 387.812 0h-45.625c-12.603 0-22.812 10.209-22.812 22.813v72.543C204.828 114.62 114.619 204.828 95.356 319.375H22.813C10.209 319.375 0 329.584 0 342.188v45.625c0 12.603 10.209 22.812 22.813 22.812h72.543c19.263 114.547 109.472 204.756 224.019 224.019v72.543c0 12.604 10.209 22.813 22.813 22.813h45.625c12.603 0 22.812-10.209 22.812-22.813v-72.543c114.547-19.263 204.756-109.472 224.019-224.019h72.543c12.604 0 22.813-10.209 22.813-22.813v-45.625c0-12.603-10.209-22.812-22.813-22.812zM365 547.96c-101.057 0-182.96-81.918-182.96-182.96S263.943 182.04 365 182.04 547.96 263.958 547.96 365 466.057 547.96 365 547.96zm-.92-308.917c-69.054 0-125.037 55.983-125.037 125.038s55.983 125.037 125.038 125.037 125.037-55.982 125.037-125.037-55.982-125.038-125.037-125.038z" transform="translate(-856.000000, -145.000000) translate(856.000000, 145.000000)"/>
            </g>
        </g>
    </g>
</svg>
