<svg width="49" height="39" xmlns="http://www.w3.org/2000/svg">
    <path d="M18.563 33.918c.001.458.139.905.396 1.287l1.263 1.872c.387.576 1.269 1.04 1.968 1.04h4.558c.7 0 1.582-.464 1.968-1.04l1.262-1.872c.24-.39.378-.832.4-1.287v-2.794h-11.82l.005 2.794zM24.428.807c-7.536.022-12.96 6.049-12.96 12.826a12.655 12.655 0 0 0 3.217 8.438c1.22 1.374 3.13 4.243 3.857 6.664 0 .02.005.038.008.057h11.837c0-.019.005-.037.008-.057.728-2.421 2.636-5.29 3.857-6.664a12.655 12.655 0 0 0 3.217-8.438C37.47 6.537 31.627.784 24.428.807zm.04 6.996c-3.262.004-5.906 2.612-5.91 5.83 0 .644-.528 1.166-1.181 1.166a1.174 1.174 0 0 1-1.182-1.166c.005-4.506 3.706-8.157 8.273-8.162.653 0 1.182.522 1.182 1.166 0 .644-.529 1.166-1.182 1.166zM9.103 14.799c0-.966-.793-1.749-1.773-1.749H2.603c-.98 0-1.773.783-1.773 1.75 0 .965.794 1.748 1.773 1.748H7.33c.98 0 1.773-.783 1.773-1.749zm37.23-1.749h-4.727c-.979 0-1.773.783-1.773 1.75 0 .965.794 1.748 1.773 1.748h4.728c.979 0 1.773-.783 1.773-1.749 0-.966-.794-1.749-1.773-1.749zm-35.82-8.219L6.419 2.499a1.794 1.794 0 0 0-1.791-.022c-.558.313-.9.898-.896 1.53.003.633.353 1.214.914 1.52L8.74 7.86c.55.326 1.234.334 1.791.021.557-.312.9-.898.896-1.53a1.746 1.746 0 0 0-.914-1.52zm33.778 19.24-4.094-2.333a1.794 1.794 0 0 0-1.792-.021c-.557.313-.9.898-.896 1.53.004.633.354 1.214.915 1.52l4.094 2.332c.845.462 1.91.17 2.393-.655a1.736 1.736 0 0 0-.62-2.373zM8.74 21.738l-4.094 2.333c-.56.306-.91.887-.914 1.52a1.745 1.745 0 0 0 .896 1.53 1.794 1.794 0 0 0 1.79-.022l4.095-2.332a1.736 1.736 0 0 0 .62-2.373 1.786 1.786 0 0 0-2.393-.656zM39.312 8.094c.311.001.617-.08.886-.234l4.094-2.332a1.736 1.736 0 0 0 .62-2.373 1.786 1.786 0 0 0-2.393-.656L38.425 4.83a1.74 1.74 0 0 0-.825 1.967 1.77 1.77 0 0 0 1.712 1.296z" fill="#00BDED" fill-rule="nonzero"/>
</svg>
