<svg width="32" height="41" xmlns="http://www.w3.org/2000/svg">
    <path d="M18.865 10.957V.184H2.732C1.66.184.796 1.032.796 2.085V38.84c0 1.053.863 1.9 1.936 1.9h27.103c1.073 0 1.936-.847 1.936-1.9V12.858H20.8c-1.065 0-1.936-.856-1.936-1.901zm4.754 18.326c0 .502-.435.912-.967.912H9.1c-.532 0-.968-.41-.968-.912v-.608c0-.502.436-.913.968-.913h13.552c.532 0 .967.41.967.913v.608zm0-4.867c0 .502-.435.913-.967.913H9.1c-.532 0-.968-.41-.968-.913v-.608c0-.502.436-.913.968-.913h13.552c.532 0 .967.411.967.913v.608zm0-5.475v.609c0 .501-.435.912-.967.912H9.1c-.532 0-.968-.41-.968-.912v-.609c0-.502.436-.912.968-.912h13.552c.532 0 .967.41.967.912zm8.152-8.715v.503H21.174V.184h.505c.53 0 1.035.206 1.407.577l8.105 8.073c.373.37.58.873.58 1.392z" fill="#00BDED" fill-rule="nonzero"/>
</svg>
