<svg xmlns="http://www.w3.org/2000/svg" width="24" height="16" viewBox="0 0 24 16">
    <g fill="none" fill-rule="evenodd">
        <g fill="#00BDED" fill-rule="nonzero">
            <g>
                <path d="M5.333 4h13.334v8H5.333V4zM22 8c0 1.105.895 2 2 2v4c0 1.105-.895 2-2 2H2c-1.105 0-2-.895-2-2v-4c1.105 0 2-.895 2-2s-.895-2-2-2V2C0 .895.895 0 2 0h20c1.105 0 2 .895 2 2v4c-1.105 0-2 .895-2 2zm-2-4.333c0-.553-.448-1-1-1H5c-.552 0-1 .447-1 1v8.666c0 .553.448 1 1 1h14c.552 0 1-.447 1-1V3.667z" transform="translate(-565.000000, -944.000000) translate(565.000000, 944.000000)"/>
            </g>
        </g>
    </g>
</svg>
