<svg width="45" height="34" xmlns="http://www.w3.org/2000/svg">
    <path d="M43.26 33.36c.286 0 .53-.1.73-.3.201-.2.301-.442.301-.727v-3.422c0-.285-.1-.527-.3-.727-.201-.2-.445-.3-.731-.3H5.777V1.538c0-.286-.1-.528-.3-.728C5.275.61 5.031.51 4.745.51h-3.44c-.286 0-.53.1-.73.3-.2.199-.3.441-.3.727v30.796c0 .285.1.528.3.727.2.2.444.3.73.3H43.26zm-1.72-8.213L33.803 9.065c-.114-.286-.33-.47-.645-.556a.792.792 0 0 0-.816.213v-.085l-7.308 4.876-7.307-9.752a.996.996 0 0 0-.903-.385c-.372.028-.644.185-.816.47l-7.48 12.405v8.896H41.54z" fill="#00BDED" fill-rule="nonzero"/>
</svg>
