<svg xmlns="http://www.w3.org/2000/svg" width="200" height="51" viewBox="0 0 200 51">
    <g fill="none" fill-rule="evenodd">
        <g fill-rule="nonzero">
            <g>
                <path fill="#191414" d="M44.284 51c.397 0 .788-.046 1.17-.14.383-.092.724-.24 1.024-.44.3-.201.542-.46.726-.776.184-.316.276-.697.276-1.143 0-.208-.032-.417-.096-.625-.064-.208-.161-.403-.292-.586-.132-.182-.295-.344-.49-.485-.195-.141-.424-.253-.686-.335-.105-.03-.28-.076-.524-.14-.244-.062-.493-.128-.748-.194-.255-.067-.486-.129-.692-.185l-.355-.094c-.285-.082-.515-.203-.692-.363-.176-.16-.264-.381-.264-.664 0-.2.047-.368.14-.502.094-.134.212-.24.355-.318.142-.078.3-.134.473-.167.172-.034.341-.05.506-.05.488 0 .889.106 1.204.318.315.212.492.574.53 1.087h1.406c0-.416-.083-.783-.248-1.099-.165-.316-.388-.582-.67-.797-.28-.216-.607-.378-.978-.486-.372-.108-.768-.161-1.188-.161-.36 0-.716.046-1.069.139-.352.093-.668.236-.945.43-.278.193-.5.437-.67.73-.169.294-.253.642-.253 1.044 0 .208.028.412.084.613.057.201.152.39.287.57.135.178.317.34.546.484.23.146.516.263.861.352.555.149 1.022.27 1.401.363.38.093.711.191.996.295.165.06.317.162.456.307s.208.37.208.675c0 .149-.03.296-.09.44-.06.146-.157.274-.292.386-.136.111-.312.202-.53.273-.217.07-.48.106-.787.106-.285 0-.55-.032-.794-.095-.243-.063-.46-.163-.647-.301-.187-.138-.333-.314-.439-.53-.105-.216-.157-.476-.157-.781H40.93c.008.49.102.917.282 1.277.18.361.42.657.72.887.3.231.653.402 1.058.514.405.111.836.167 1.294.167zm9.081 0c.488 0 .935-.078 1.34-.234.405-.156.757-.378 1.057-.664.3-.287.539-.627.715-1.021.176-.394.28-.83.31-1.305h-1.373c-.03.29-.094.561-.192.814-.097.253-.232.474-.405.664-.172.19-.379.338-.619.446-.24.108-.517.162-.833.162-.427 0-.797-.086-1.108-.257-.311-.17-.565-.4-.76-.686-.195-.286-.34-.612-.433-.976-.094-.364-.14-.736-.14-1.116 0-.38.046-.751.14-1.115.094-.365.238-.69.433-.977.195-.286.449-.515.76-.686.311-.17.68-.256 1.108-.256.293 0 .55.039.771.117.222.078.415.188.58.329.165.141.3.309.405.502.105.193.188.405.248.636h1.406c-.045-.432-.161-.815-.349-1.15-.187-.334-.433-.619-.737-.853-.304-.234-.654-.413-1.052-.535-.397-.123-.821-.184-1.272-.184-.6 0-1.138.111-1.614.334-.477.223-.88.525-1.21.904-.33.38-.583.822-.76 1.328-.176.505-.264 1.041-.264 1.606 0 .573.088 1.112.264 1.618.177.506.43.948.76 1.328.33.38.733.678 1.21.898.476.22 1.014.329 1.614.329zm7.35-.19v-7.966h-1.408v7.966h1.407zm8.822 0v-1.205H65.08v-2.331h4.052v-1.138H65.08v-2.087h4.378v-1.205h-5.784v7.966h5.863zm3.747 0v-5.857h.034l3.658 5.857h1.485v-7.966h-1.34v5.869H77.1l-3.668-5.869h-1.486v7.966h1.34zm11.265 0v-6.76h2.555v-1.206h-6.505v1.205h2.544v6.761h1.406zm6.133 0v-7.966h-1.406v7.966h1.406zm4.367 0v-3.536h3.635v-1.138h-3.635v-2.087h4.141v-1.205h-5.548v7.966h1.407zm7.911 0v-7.966h-1.407v7.966h1.407zm6.38.19c.489 0 .935-.078 1.34-.234.405-.156.758-.378 1.058-.664.3-.287.538-.627.715-1.021.176-.394.279-.83.309-1.305h-1.373c-.03.29-.094.561-.191.814-.098.253-.233.474-.405.664-.173.19-.38.338-.62.446-.24.108-.517.162-.832.162-.428 0-.797-.086-1.109-.257-.31-.17-.564-.4-.76-.686-.194-.286-.339-.612-.432-.976-.094-.364-.141-.736-.141-1.116 0-.38.047-.751.14-1.115.094-.365.239-.69.434-.977.195-.286.448-.515.76-.686.31-.17.68-.256 1.108-.256.293 0 .55.039.77.117.222.078.415.188.58.329.165.141.3.309.405.502.106.193.188.405.248.636h1.407c-.045-.432-.162-.815-.35-1.15-.187-.334-.432-.619-.736-.853-.304-.234-.655-.413-1.052-.535-.398-.123-.822-.184-1.272-.184-.6 0-1.139.111-1.615.334-.476.223-.88.525-1.21.904-.33.38-.583.822-.76 1.328-.176.505-.264 1.041-.264 1.606 0 .573.088 1.112.265 1.618.176.506.43.948.76 1.328.33.38.733.678 1.209.898.476.22 1.015.329 1.615.329zm11.716-.19v-7.966h-1.407v7.966h1.407zm6.932 0v-6.76h2.555v-1.206h-6.505v1.205h2.543v6.761h1.407zm12.514.19c.488 0 .934-.078 1.34-.234.404-.156.757-.378 1.057-.664.3-.287.538-.627.715-1.021.176-.394.28-.83.31-1.305h-1.374c-.03.29-.093.561-.191.814-.098.253-.233.474-.405.664-.173.19-.379.338-.62.446-.24.108-.517.162-.832.162-.427 0-.797-.086-1.108-.257-.312-.17-.565-.4-.76-.686-.195-.286-.34-.612-.433-.976-.094-.364-.14-.736-.14-1.116 0-.38.046-.751.14-1.115.094-.365.238-.69.433-.977.195-.286.448-.515.76-.686.311-.17.68-.256 1.108-.256.293 0 .55.039.771.117.221.078.415.188.58.329.165.141.3.309.405.502.105.193.187.405.247.636h1.407c-.045-.432-.161-.815-.349-1.15-.187-.334-.433-.619-.737-.853-.304-.234-.655-.413-1.052-.535-.398-.123-.822-.184-1.272-.184-.6 0-1.138.111-1.615.334-.476.223-.88.525-1.21.904-.33.38-.583.822-.76 1.328-.175.505-.264 1.041-.264 1.606 0 .573.089 1.112.265 1.618.176.506.43.948.76 1.328.33.38.733.678 1.21.898.476.22 1.014.329 1.614.329zm9.363 0c.6 0 1.139-.11 1.615-.33.476-.219.88-.518 1.21-.897.33-.38.583-.822.76-1.328.176-.506.264-1.045.264-1.618 0-.565-.088-1.1-.265-1.606-.176-.506-.43-.949-.76-1.328-.33-.38-.733-.68-1.209-.904-.476-.223-1.015-.334-1.615-.334-.6 0-1.138.111-1.615.334-.476.223-.88.525-1.21.904-.33.38-.583.822-.76 1.328-.175.505-.264 1.041-.264 1.606 0 .573.089 1.112.265 1.618.176.506.43.948.76 1.328.33.38.733.678 1.21.898.476.22 1.014.329 1.614.329zm0-1.138c-.427 0-.797-.086-1.108-.257-.312-.17-.565-.4-.76-.686-.195-.286-.34-.612-.433-.976-.094-.364-.14-.736-.14-1.116 0-.38.046-.751.14-1.115.094-.365.238-.69.433-.977.195-.286.448-.515.76-.686.311-.17.68-.256 1.108-.256.428 0 .797.085 1.109.256.311.171.564.4.76.686.194.287.339.612.433.977.093.364.14.736.14 1.115 0 .38-.047.752-.14 1.116-.094.364-.239.69-.434.976-.195.287-.448.515-.76.686-.31.171-.68.257-1.108.257zm7.686.948v-6.147h.023l2.228 6.147h1.16l2.227-6.147h.023v6.147h1.34v-7.966h-1.959l-2.16 6.237h-.023l-2.217-6.237h-1.98v7.966h1.338zm11.333 0v-3.057h2.138c.57 0 1.035-.08 1.395-.24.36-.16.638-.362.833-.608.195-.245.328-.511.4-.797.07-.287.107-.553.107-.798 0-.246-.036-.513-.107-.803-.072-.29-.205-.558-.4-.804-.195-.245-.472-.45-.833-.613-.36-.164-.825-.246-1.395-.246h-3.545v7.966h1.407zm2.06-4.195h-2.06v-2.633h2.082c.187 0 .364.019.529.056.165.037.311.106.438.206.128.1.23.237.304.408.075.17.113.386.113.647 0 .253-.043.463-.13.63-.086.167-.198.301-.337.402-.139.1-.29.173-.456.217-.165.045-.326.067-.484.067zm4.962 4.195l.754-2.108h3.207l.754 2.108h1.508l-3.094-7.966h-1.497l-3.084 7.966h1.452zm3.59-3.168h-2.453l1.215-3.425h.034l1.204 3.425zm5.92 3.168v-5.857h.033l3.658 5.857h1.485v-7.966h-1.34v5.869h-.022l-3.668-5.869h-1.486v7.966h1.34zm11.58 0v-3.124L200 42.844h-1.576l-2.093 3.57-2.127-3.57h-1.631l3.016 4.842v3.124h1.406z" opacity=".596" transform="translate(-100.000000, -24.000000) translate(100.000000, 24.000000)"/>
                <g>
                    <path fill="#191414" d="M39.113 27.361l5.994-.899c.255 1.143.772 2.011 1.552 2.604.779.592 1.87.889 3.273.889 1.545 0 2.707-.28 3.486-.837.524-.39.787-.913.787-1.569 0-.446-.142-.815-.425-1.108-.298-.278-.964-.536-1.999-.773-4.818-1.046-7.872-2-9.16-2.865-1.786-1.2-2.68-2.865-2.68-4.998 0-1.924.773-3.54 2.318-4.851 1.544-1.31 3.94-1.966 7.184-1.966 3.09 0 5.385.495 6.888 1.485 1.5.99 2.536 2.454 3.103 4.391L53.8 17.89c-.242-.865-.698-1.527-1.371-1.987-.674-.46-1.634-.69-2.88-.69-1.573 0-2.7.216-3.38.648-.454.307-.68.705-.68 1.192 0 .419.198.774.595 1.067.539.39 2.398.94 5.58 1.651 3.18.712 5.402 1.583 6.663 2.615 1.247 1.045 1.87 2.502 1.87 4.37 0 2.036-.864 3.785-2.592 5.248-1.73 1.464-4.287 2.196-7.674 2.196-3.075 0-5.509-.613-7.3-1.84-1.794-1.227-2.966-2.892-3.519-4.998M82.978 18.056l-5.888 1.046c-.199-1.157-.649-2.029-1.35-2.614-.701-.586-1.612-.878-2.731-.878-1.488 0-2.675.505-3.56 1.516-.886 1.01-1.329 2.7-1.329 5.07 0 2.635.45 4.496 1.35 5.584.9 1.087 2.107 1.63 3.624 1.63 1.133 0 2.062-.316 2.785-.95.722-.635 1.232-1.726 1.53-3.274l5.866.983c-.61 2.65-1.778 4.65-3.507 6.002-1.73 1.352-4.046 2.028-6.95 2.028-3.303 0-5.935-1.025-7.897-3.073-1.963-2.05-2.944-4.886-2.944-8.511 0-3.667.985-6.521 2.954-8.563 1.97-2.043 4.634-3.063 7.993-3.063 2.749 0 4.935.582 6.557 1.745 1.623 1.164 2.788 2.938 3.497 5.322M85.372 33.697L91.345 33.697 91.345 11.49 85.372 11.49zM115.867 33.697h-5.973V22.364c0-2.398-.128-3.949-.382-4.653-.256-.703-.67-1.25-1.244-1.641-.574-.39-1.265-.586-2.073-.586-1.034 0-1.963.279-2.784.836-.822.558-1.385 1.297-1.69 2.217-.305.92-.456 2.62-.456 5.102v10.058H95.29V11.49h5.548v3.262c1.97-2.51 4.45-3.763 7.44-3.763 1.317 0 2.521.233 3.614.7 1.09.467 1.915 1.063 2.475 1.788.56.725.95 1.547 1.17 2.467.22.92.33 2.238.33 3.952v13.801zM130.811 11.49v4.684h-4.081v8.95c0 1.812.04 2.868.117 3.168.078.3.255.547.532.742.275.195.612.293 1.01.293.551 0 1.352-.188 2.4-.564l.511 4.558c-1.389.585-2.962.878-4.718.878-1.077 0-2.048-.178-2.912-.533-.865-.356-1.5-.816-1.903-1.38-.404-.565-.684-1.328-.84-2.29-.127-.683-.19-2.063-.19-4.14v-9.682h-2.742V11.49h2.741V7.078l5.994-3.43v7.842h4.081z" transform="translate(-100.000000, -24.000000) translate(100.000000, 24.000000)"/>
                    <path fill="#191414" d="M146.236 20.69c-.043-1.7-.49-2.992-1.34-3.878-.85-.885-1.884-1.328-3.103-1.328-1.303 0-2.38.468-3.231 1.401-.85.934-1.268 2.203-1.254 3.806h8.928zm-.34 5.94l5.952.982c-.766 2.147-1.974 3.782-3.625 4.904-1.65 1.122-3.716 1.683-6.195 1.683-3.926 0-6.831-1.261-8.716-3.785-1.488-2.02-2.231-4.572-2.231-7.653 0-3.68.977-6.562 2.933-8.647 1.955-2.084 4.427-3.126 7.418-3.126 3.359 0 6.008 1.091 7.95 3.273 1.94 2.182 2.869 5.524 2.785 10.026h-14.965c.043 1.743.524 3.099 1.446 4.068.92.969 2.068 1.453 3.443 1.453.935 0 1.722-.251 2.36-.753.637-.502 1.118-1.31 1.444-2.426zM174.584 18.056l-5.888 1.046c-.199-1.157-.649-2.029-1.35-2.614-.702-.586-1.612-.878-2.731-.878-1.489 0-2.675.505-3.56 1.516-.887 1.01-1.329 2.7-1.329 5.07 0 2.635.45 4.496 1.35 5.584.9 1.087 2.107 1.63 3.623 1.63 1.135 0 2.062-.316 2.786-.95.722-.635 1.232-1.726 1.53-3.274l5.867.983c-.61 2.65-1.779 4.65-3.508 6.002-1.73 1.352-4.046 2.028-6.95 2.028-3.303 0-5.935-1.025-7.897-3.073-1.963-2.05-2.944-4.886-2.944-8.511 0-3.667.985-6.521 2.954-8.563 1.97-2.043 4.634-3.063 7.992-3.063 2.75 0 4.936.582 6.558 1.745 1.623 1.164 2.788 2.938 3.497 5.322M181.718 22.594c0 2.203.531 3.89 1.594 5.06 1.063 1.17 2.373 1.756 3.932 1.756 1.56 0 2.866-.585 3.922-1.756 1.056-1.17 1.583-2.871 1.583-5.102 0-2.175-.527-3.848-1.583-5.019-1.056-1.17-2.363-1.756-3.922-1.756-1.559 0-2.87.586-3.932 1.756-1.063 1.171-1.594 2.858-1.594 5.06m-6.122-.313c0-1.952.489-3.84 1.467-5.667.978-1.826 2.362-3.22 4.155-4.182 1.793-.962 3.794-1.442 6.005-1.442 3.415 0 6.214 1.09 8.396 3.272 2.183 2.182 3.274 4.938 3.274 8.27 0 3.36-1.103 6.144-3.306 8.354-2.203 2.21-4.977 3.314-8.322 3.314-2.069 0-4.042-.46-5.92-1.38-1.876-.92-3.304-2.269-4.282-4.046-.978-1.778-1.467-3.942-1.467-6.493" transform="translate(-100.000000, -24.000000) translate(100.000000, 24.000000)"/>
                    <path fill="#00BDED" d="M88.32 7.548c-2.09 0-3.785-1.69-3.785-3.774S86.229 0 88.32 0c2.09 0 3.785 1.69 3.785 3.774 0 2.085-1.695 3.774-3.785 3.774z" transform="translate(-100.000000, -24.000000) translate(100.000000, 24.000000)"/>
                    <g fill="#00BDED">
                        <path d="M15.983 22.162c-3.532 0-6.394-2.834-6.394-6.331 0-3.497 2.862-6.332 6.394-6.332 3.53 0 6.392 2.835 6.392 6.332s-2.863 6.33-6.392 6.33z" transform="translate(-100.000000, -24.000000) translate(100.000000, 24.000000) translate(0.000000, 6.150000)"/>
                        <path d="M9.834 1.257c8.19-3.474 17.566.505 20.927 8.82 1.687 4.168 1.579 8.77-.195 12.813-.704 1.603-2.587 2.338-4.206 1.641-1.597-.687-2.34-2.512-1.684-4.1l.027-.065c1.1-2.51 1.168-5.355.124-7.934-2.04-5.047-7.62-7.415-12.476-5.355C7.438 9.162 5.077 14.999 7.14 20.1c1.018 2.517 2.953 4.429 5.362 5.402l.114.045c1.643.639 2.451 2.476 1.806 4.104-.646 1.627-2.501 2.428-4.144 1.788-4.093-1.593-7.38-4.8-9.072-8.985-3.343-8.262.492-17.745 8.627-21.197z" transform="translate(-100.000000, -24.000000) translate(100.000000, 24.000000) translate(0.000000, 6.150000)"/>
                    </g>
                </g>
            </g>
        </g>
    </g>
</svg>
