<svg xmlns="http://www.w3.org/2000/svg" width="240" height="80" viewBox="0 0 240 80">
    <g fill="none" fill-rule="evenodd">
        <g>
            <g>
                <path d="M0 0H240V80H0z" transform="translate(-746.000000, -370.000000) translate(746.000000, 370.000000)"/>
                <g>
                    <g fill="#191414">
                        <path d="M3.82 4.93l-1.466 7.322h2.952L3.82 4.93zm2.52 12.395l-.806-3.989H2.106l-.785 3.989H0L3.283 2.762H4.42l3.22 14.563h-1.3zM12.987 17.325v-.839c-.125.225-.413.512-.6.634-.33.225-.722.368-1.197.368-.702 0-1.218-.245-1.652-.695-.413-.43-.64-1.023-.64-2.066V6.914h1.156v7.834c0 1.145.64 1.697 1.446 1.697.805 0 1.466-.552 1.466-1.697V6.914h1.156v10.41h-1.135M17.755 16.67c-.516-.47-.785-1.166-.785-2.127V7.896h-1.28v-.9h1.28v-3.13h1.156v3.13h1.796v.9h-1.796v6.647c0 1.248.661 1.76 1.88 1.76v1.022c-.847 0-1.632-.082-2.251-.655M25.063 8.243c-.227-.266-.578-.47-1.032-.47-.455 0-.826.204-1.053.47-.475.573-.516 1.657-.516 3.887s.04 3.293.516 3.865c.227.266.598.47 1.053.47.454 0 .805-.204 1.032-.47.475-.572.537-1.636.537-3.865 0-2.23-.062-3.314-.537-3.887zm.909 8.427c-.455.553-1.095.818-1.941.818-.847 0-1.487-.265-1.941-.818-.64-.757-.785-2.086-.785-4.54 0-2.455.145-3.785.785-4.541.454-.553 1.094-.84 1.94-.84.847 0 1.487.287 1.942.84.64.756.784 2.086.784 4.54 0 2.455-.144 3.784-.784 4.541zM32.97 17.325V9.49c0-1.146-.64-1.698-1.446-1.698-.804 0-1.465.552-1.465 1.698v7.834h-1.157V6.914h1.136v.838c.124-.225.413-.51.599-.634.33-.225.723-.368 1.197-.368.702 0 1.219.266 1.652.716.413.43.64 1.002.64 2.046v7.813H32.97M39.969 8.243c-.228-.266-.579-.47-1.033-.47-.454 0-.826.204-1.053.47-.475.573-.516 1.657-.516 3.887s.041 3.293.516 3.865c.227.266.599.47 1.053.47.454 0 .805-.204 1.033-.47.474-.572.536-1.636.536-3.865 0-2.23-.062-3.314-.536-3.887zm.908 8.427c-.454.553-1.094.818-1.941.818s-1.487-.265-1.94-.818c-.641-.757-.786-2.086-.786-4.54 0-2.455.145-3.785.785-4.541.454-.553 1.094-.84 1.94-.84.848 0 1.488.287 1.942.84.64.756.785 2.086.785 4.54 0 2.455-.145 3.784-.785 4.541zM51.943 17.325V9.49c0-1.146-.64-1.698-1.446-1.698-.805 0-1.466.552-1.466 1.698v7.834h-1.156V9.49c0-1.146-.64-1.698-1.445-1.698s-1.466.552-1.466 1.698v7.834h-1.156V6.914h1.135v.838c.124-.225.413-.51.599-.634.33-.225.723-.368 1.197-.368.785 0 1.549.47 1.962 1.105.186-.266.454-.573.723-.737.35-.225.784-.368 1.26-.368.866 0 1.342.266 1.775.716.413.43.64 1.002.64 2.046v7.813h-1.156M58.94 8.243c-.227-.266-.557-.47-1.032-.47s-.826.204-1.053.47c-.413.47-.496 1.37-.516 3.13h3.118c-.021-1.76-.103-2.66-.516-3.13zm-2.601 4.05c0 2.127.062 3.17.537 3.702.227.266.578.47 1.053.47.413 0 .784-.122 1.053-.408.31-.328.475-.84.475-1.473h1.136c-.021 1.002-.228 1.636-.765 2.189-.454.47-1.177.715-1.9.715-.825 0-1.445-.265-1.899-.756-.702-.737-.846-2.107-.846-4.602 0-2.496.144-3.887.846-4.623.454-.491 1.074-.757 1.879-.757.805 0 1.425.266 1.88.757.742.797.825 2.27.825 4.786h-4.274zM70.398 1.288H71.7V0h-1.3v1.288zm.64 2.925c-.289-.327-.722-.531-1.321-.531s-1.012.204-1.301.531c-.599.717-.702 1.555-.702 5.83s.103 5.114.702 5.83c.29.327.702.532 1.3.532.6 0 1.033-.205 1.322-.532.6-.716.702-1.555.702-5.83s-.103-5.113-.702-5.83zM67.57 1.288h1.301V0h-1.3v1.288zm4.357 15.342c-.495.531-1.26.858-2.21.858s-1.692-.327-2.188-.858c-.93-.982-1.032-2.128-1.032-6.587s.103-5.604 1.032-6.586c.496-.532 1.239-.86 2.189-.86s1.714.328 2.21.86c.928.982 1.032 2.127 1.032 6.586 0 4.46-.104 5.605-1.033 6.587zM79.46 16.69c-.516.512-1.197.798-2.002.798-.806 0-1.446-.265-1.92-.736-.599-.613-.826-1.37-.826-2.25h1.156c0 .655.144 1.146.537 1.534.289.287.66.43 1.053.43.496 0 .888-.164 1.197-.47.31-.307.475-.758.475-1.29 0-.429-.082-.797-.289-1.125-.227-.347-.557-.633-1.053-.899l-1.321-.717c-.66-.367-1.136-.837-1.363-1.226-.206-.389-.29-.798-.29-1.31 0-.797.332-1.472.827-1.963.475-.47 1.136-.716 1.879-.716.784 0 1.404.225 1.879.695.516.512.764 1.248.764 2.25h-1.156c0-.777-.124-1.165-.455-1.513-.289-.307-.66-.41-1.032-.41-.454 0-.826.124-1.095.39-.33.306-.453.797-.453 1.226 0 .348.061.655.206.9.144.267.495.512.97.778l1.301.736c.681.369 1.136.757 1.425 1.228.289.47.413 1.043.413 1.636 0 .818-.33 1.534-.826 2.025M83.321 16.67c-.516-.47-.784-1.166-.784-2.127V7.896h-1.28v-.9h1.28v-3.13h1.156v3.13h1.796v.9h-1.796v6.647c0 1.248.66 1.76 1.878 1.76v1.022c-.846 0-1.63-.082-2.25-.655M90.63 8.243c-.228-.266-.558-.47-1.033-.47-.475 0-.826.204-1.053.47-.413.47-.496 1.37-.516 3.13h3.118c-.021-1.76-.104-2.66-.517-3.13zm-2.602 4.05c0 2.127.062 3.17.536 3.702.228.266.579.47 1.054.47.413 0 .784-.122 1.053-.408.31-.328.475-.84.475-1.473h1.135c-.02 1.002-.227 1.636-.763 2.189-.455.47-1.178.715-1.9.715-.826 0-1.445-.265-1.9-.756-.702-.737-.847-2.107-.847-4.602 0-2.496.145-3.887.847-4.623.455-.491 1.074-.757 1.88-.757.804 0 1.424.266 1.878.757.743.797.826 2.27.826 4.786h-4.274zM97.587 7.834c-1.239 0-2.044.777-2.044 2.025v7.466h-1.157V6.914h1.136v1.104c.103-.225.351-.511.516-.654.475-.43 1.095-.614 1.797-.614v1.084h-.248M102.604 7.834c-1.24 0-2.045.777-2.045 2.025v7.466h-1.156V6.914h1.136v1.104c.103-.225.35-.511.516-.654.475-.43 1.094-.614 1.796-.614v1.084h-.247M107.7 8.243c-.227-.266-.557-.47-1.032-.47s-.826.204-1.053.47c-.413.47-.495 1.37-.516 3.13h3.118c-.021-1.76-.104-2.66-.517-3.13zm-2.601 4.05c0 2.127.062 3.17.537 3.702.227.266.578.47 1.053.47.413 0 .784-.122 1.053-.408.31-.328.475-.84.475-1.473h1.135c-.02 1.002-.227 1.636-.763 2.189-.455.47-1.178.715-1.9.715-.826 0-1.445-.265-1.9-.756-.702-.737-.847-2.107-.847-4.602 0-2.496.145-3.887.847-4.623.455-.491 1.074-.757 1.88-.757.804 0 1.424.266 1.878.757.743.797.826 2.27.826 4.786H105.1zM111.457 17.325h1.157V6.914h-1.157v10.41zm-.165-12.805h1.486V3.048h-1.486V4.52zM119.385 16.813c-.454.471-1.094.675-1.858.675-.784 0-1.487-.265-1.94-.818-.641-.757-.786-2.086-.786-4.54 0-2.455.145-3.785.785-4.541.454-.553 1.157-.84 1.941-.84.805 0 1.404.165 1.858.635.62.614.723 1.452.744 2.29h-1.136c0-.51-.041-1.063-.413-1.471-.268-.287-.578-.43-1.032-.43-.455 0-.847.204-1.074.47-.475.573-.516 1.657-.516 3.887s.041 3.293.516 3.865c.227.266.62.47 1.074.47.413 0 .743-.142 1.011-.408.372-.368.434-.86.434-1.473h1.136c-.021.982-.227 1.698-.744 2.23M126.198 17.325V9.49c0-1.146-.64-1.698-1.445-1.698-.806 0-1.466.552-1.466 1.698v7.834h-1.157V2.762h1.157v4.97c.103-.225.413-.49.578-.614.33-.225.723-.368 1.197-.368.702 0 1.218.266 1.652.716.413.43.64 1.002.64 2.046v7.813h-1.156M129.79 17.325h1.156V6.914h-1.156v10.41zm-.166-12.805h1.487V3.048h-1.487V4.52zM137.635 16.69c-.516.512-1.198.798-2.003.798-.805 0-1.445-.265-1.92-.736-.599-.613-.826-1.37-.826-2.25h1.156c0 .655.145 1.146.537 1.534.29.287.66.43 1.053.43.496 0 .888-.164 1.198-.47.31-.307.475-.758.475-1.29 0-.429-.083-.797-.29-1.125-.226-.347-.557-.633-1.052-.899l-1.322-.717c-.66-.367-1.135-.837-1.362-1.226-.207-.389-.29-.798-.29-1.31 0-.797.331-1.472.826-1.963.475-.47 1.136-.716 1.88-.716.784 0 1.403.225 1.878.695.516.512.764 1.248.764 2.25h-1.156c0-.777-.124-1.165-.454-1.513-.29-.307-.662-.41-1.033-.41-.454 0-.826.124-1.094.39-.33.306-.454.797-.454 1.226 0 .348.061.655.206.9.144.267.496.512.97.778l1.301.736c.682.369 1.136.757 1.425 1.228.29.47.413 1.043.413 1.636 0 .818-.33 1.534-.826 2.025M144.613 16.813c-.454.471-1.095.675-1.859.675-.784 0-1.486-.265-1.94-.818-.64-.757-.785-2.086-.785-4.54 0-2.455.144-3.785.785-4.541.454-.553 1.156-.84 1.94-.84.806 0 1.405.165 1.859.635.62.614.722 1.452.743 2.29h-1.136c0-.51-.041-1.063-.413-1.471-.268-.287-.578-.43-1.032-.43-.454 0-.847.204-1.074.47-.475.573-.516 1.657-.516 3.887s.041 3.293.516 3.865c.227.266.62.47 1.074.47.413 0 .743-.142 1.012-.408.372-.368.433-.86.433-1.473h1.136c-.02.982-.227 1.698-.743 2.23M151.426 17.325V9.49c0-1.146-.64-1.698-1.446-1.698-.805 0-1.466.552-1.466 1.698v7.834h-1.156V2.762h1.156v4.97c.103-.225.413-.49.579-.614.33-.225.722-.368 1.197-.368.702 0 1.218.266 1.652.716.413.43.64 1.002.64 2.046v7.813h-1.156M158.423 8.243c-.227-.266-.557-.47-1.032-.47s-.826.204-1.053.47c-.413.47-.496 1.37-.516 3.13h3.118c-.021-1.76-.104-2.66-.517-3.13zm-2.6 4.05c0 2.127.06 3.17.536 3.702.227.266.578.47 1.053.47.413 0 .784-.122 1.053-.408.31-.328.475-.84.475-1.473h1.135c-.02 1.002-.227 1.636-.763 2.189-.455.47-1.178.715-1.9.715-.826 0-1.445-.265-1.9-.756-.702-.737-.846-2.107-.846-4.602 0-2.496.144-3.887.846-4.623.455-.491 1.074-.757 1.88-.757.804 0 1.424.266 1.878.757.743.797.826 2.27.826 4.786h-4.274zM4.16 29.747L4.16 35.703 8.952 35.703 8.952 38.682 4.16 38.682 4.16 47.764.826 47.764.826 26.769 9.726 26.769 9.726 29.747 4.16 29.747M17.823 29.747h-2.054v6.428h2.054c1.786 0 2.054-1.474 2.054-3.214s-.268-3.214-2.054-3.214zm2.59 18.017l-2.769-8.61H15.77v8.61h-3.334V26.77h5.358c3.87 0 5.418 1.857 5.418 6.192 0 2.595-.536 4.453-2.47 5.485l3.154 9.318h-3.482zM31.843 31.84l-1.816 8.788h3.632l-1.816-8.787zm3.304 15.924l-.863-4.158h-4.912l-.833 4.158h-3.512l5.209-20.995h3.244l5.15 20.995h-3.483zM49.82 46.467C48.81 47.499 47.47 48 45.892 48c-1.577 0-2.947-.501-3.959-1.533-.922-.944-1.458-2.27-1.458-3.864V26.77h3.334V42.78c0 1.504.952 2.24 2.083 2.24 1.131 0 2.054-.736 2.054-2.24V26.769h3.334v15.834c0 1.593-.536 2.92-1.458 3.864M54.673 47.764L54.673 26.769 63.573 26.769 63.573 29.747 58.006 29.747 58.006 35.703 62.799 35.703 62.799 38.682 58.006 38.682 58.006 44.786 63.573 44.786 63.573 47.764 54.673 47.764M74.795 47.764L69.794 35.291 69.794 47.764 66.46 47.764 66.46 26.769 69.437 26.769 74.407 39.242 74.407 26.769 77.742 26.769 77.742 47.764 74.795 47.764M88.785 47.764L88.785 38.564 84.647 38.564 84.647 47.764 81.313 47.764 81.313 26.769 84.647 26.769 84.647 35.615 88.785 35.615 88.785 26.769 92.118 26.769 92.118 47.764 88.785 47.764M102 25.059h2.978v-2.95h-2.977v2.95zm-1.13 6.782l-1.816 8.787h3.632l-1.816-8.787zm-4.078-6.782h2.976v-2.95h-2.976v2.95zm7.382 22.705l-.863-4.158h-4.912l-.833 4.158h-3.513l5.21-20.995h3.244l5.15 20.995h-3.483zM118.818 46.467c-1.012 1.032-2.351 1.533-3.93 1.533-1.577 0-2.946-.501-3.958-1.533-.922-.944-1.458-2.27-1.458-3.864V26.77h3.334V42.78c0 1.504.952 2.24 2.083 2.24 1.131 0 2.054-.736 2.054-2.24V26.769h3.334v15.834c0 1.593-.536 2.92-1.459 3.864M132.54 46.585c-.863.825-2.262 1.385-4.137 1.385-1.846 0-3.215-.5-4.108-1.385-1.012-1.003-1.37-2.3-1.37-4.512h3.335c0 1.12.119 1.828.595 2.359.298.324.804.56 1.548.56.774 0 1.28-.206 1.607-.59.447-.501.566-1.208.566-2.33 0-2.24-.357-2.8-1.994-3.45l-2.531-1.031c-2.143-.885-2.947-2.035-2.947-5.278 0-1.888.566-3.421 1.727-4.453.922-.797 2.114-1.268 3.632-1.268 1.696 0 2.946.442 3.81 1.268 1.1 1.061 1.488 2.565 1.488 4.57h-3.334c0-.943-.06-1.68-.506-2.24-.298-.384-.774-.62-1.488-.62-.685 0-1.102.236-1.429.59-.387.442-.566 1.15-.566 2.064 0 1.71.268 2.241 1.757 2.83l2.5 1.003c2.53 1.033 3.215 2.36 3.215 5.898 0 2.153-.298 3.598-1.37 4.63M136.827 47.764L136.827 26.769 145.727 26.769 145.727 29.747 140.16 29.747 140.16 35.703 144.953 35.703 144.953 38.682 140.16 38.682 140.16 44.786 145.727 44.786 145.727 47.764 136.827 47.764M154.002 29.747h-2.054v6.428h2.054c1.786 0 2.054-1.474 2.054-3.214s-.268-3.214-2.054-3.214zm2.59 18.017l-2.769-8.61h-1.875v8.61h-3.334V26.77h5.358c3.87 0 5.418 1.857 5.418 6.192 0 2.595-.536 4.453-2.471 5.485l3.155 9.318h-3.483z" transform="translate(-746.000000, -370.000000) translate(746.000000, 370.000000) translate(6.000000, 14.000000) translate(64.903846, 0.000000)"/>
                    </g>
                    <g>
                        <path fill="#DD4934" d="M0 48L22.741 21.439 23.928 5.943 30.629 19.753 32.264 13.008 41.079 10.733 38.599 12.13 42.365 12.143 38.609 13.7 43.214 13.7 38.625 15.432 41.182 15.432 35.958 18.023 34.499 20.413 46.499 24.504 33.469 25.54 14.137 46.551 15.573 37.385 0 48" transform="translate(-746.000000, -370.000000) translate(746.000000, 370.000000) translate(6.000000, 14.000000)"/>
                        <path fill="#3FAC9B" d="M23.705 0L48.562 0 51.058 24.686 44.91 3.637 23.705 0" transform="translate(-746.000000, -370.000000) translate(746.000000, 370.000000) translate(6.000000, 14.000000)"/>
                    </g>
                </g>
            </g>
        </g>
    </g>
</svg>
