<svg xmlns="http://www.w3.org/2000/svg" width="240" height="80" viewBox="0 0 240 80">
    <g fill="none" fill-rule="evenodd">
        <g>
            <g>
                <path d="M0 0H240V80H0z" transform="translate(-747.000000, -190.000000) translate(747.000000, 190.000000)"/>
                <g fill-rule="nonzero">
                    <g>
                        <g>
                            <path fill="#F15B31" stroke="#F15B31" stroke-width="1.039" d="M48.353 26.808c0 3.973-3.133 7.192-6.995 7.192H6.993C3.13 34 0 30.78 0 26.808V7.192C0 3.222 3.13 0 6.993 0h34.365c3.862 0 6.995 3.221 6.995 7.192v19.616z" transform="translate(-747.000000, -190.000000) translate(747.000000, 190.000000) translate(6.000000, 23.000000)"/>
                            <path fill="#FFF" d="M6.575 16.182c1.345-4.286 5.332-7.395 10.042-7.395s8.696 3.109 10.043 7.395h2.965C28.2 10.289 22.918 5.913 16.617 5.913c-6.3 0-11.582 4.376-13.009 10.269h2.967m35.157 1.468c-1.37 4.357-5.42 7.517-10.207 7.517-4.786 0-8.837-3.16-10.205-7.517h-3.013c1.447 5.99 6.814 10.437 13.218 10.437 6.403 0 11.77-4.447 13.22-10.437h-3.013" transform="translate(-747.000000, -190.000000) translate(747.000000, 190.000000) translate(6.000000, 23.000000)"/>
                        </g>
                        <g fill="#191414">
                            <path d="M38.599 14.01c0 2.098 1.231 3.4 3.357 3.4 1.319 0 2.266-.538 2.638-1.956h3.586c-.63 3.2-3.272 4.503-6.339 4.503-4.705 0-7.2-2.776-7.2-7.192 0-4.16 2.867-6.852 7.112-6.852 3.243 0 5.855 1.84 6.427 5.096.173 1.048.173 2.066.173 3h-9.754zm5.937-2.408c0-1.895-.974-3.14-2.956-3.14-1.92 0-2.981 1.358-2.981 3.14h5.937M71.796 14.01c0 2.098 1.234 3.4 3.357 3.4 1.32 0 2.266-.538 2.639-1.956h3.588c-.63 3.2-3.272 4.503-6.342 4.503-4.705 0-7.2-2.776-7.2-7.192 0-4.16 2.87-6.852 7.115-6.852 3.243 0 5.852 1.84 6.427 5.096.17 1.048.17 2.066.17 3h-9.754zm5.94-2.408c0-1.895-.977-3.14-2.956-3.14-1.923 0-2.984 1.358-2.984 3.14h5.94M124.65 17.636h-.055c-1.176 1.785-2.41 2.32-4.446 2.32-2.498 0-4.68-1.415-4.68-4.245 0-4.36 4.42-4.476 7.777-4.476h1.349v-1.019c0-1.557-1.176-2.04-2.584-2.04-1.492 0-2.41.625-2.522 2.153H115.9c.229-3.794 3.387-4.416 6.542-4.416 4.334 0 5.74 1.783 5.74 5.805v5.295h1.72v2.547h-5.251v-1.924zM122.76 13.5c-1.95 0-3.7.312-3.7 2.095 0 1.247.859 1.814 2.034 1.814 2.267 0 3.558-1.644 3.502-3.91h-1.836M146.131 14.01c0 2.098 1.234 3.4 3.356 3.4 1.32 0 2.266-.538 2.638-1.956h3.585c-.63 3.2-3.268 4.503-6.337 4.503-4.705 0-7.202-2.776-7.202-7.192 0-4.16 2.87-6.852 7.117-6.852 3.242 0 5.85 1.84 6.422 5.096.173 1.048.173 2.066.173 3h-9.752zm5.936-2.408c0-1.895-.973-3.14-2.952-3.14-1.923 0-2.984 1.358-2.984 3.14h5.936M24.229 8.715h-1.266l-3.292 10.84h-4.924l-2.59-10.752H12.1l-2.7 10.752H4.475L1.268 8.715H0V6.136h6.867v2.58H5.038l1.999 7.83h.055L9.68 6.135h5.208l2.588 10.41h.058l1.996-7.83H17.7v-2.58h6.529v2.58m2.228 8.26h1.829v-8.26h-1.829v-2.58h5.573v10.84h1.83v2.58h-7.403v-2.58zM32.03 4.214h-3.882V.401h3.882v3.813m18.878 12.762h1.829v-8.26h-1.83v-2.58h5.235v2.266h.057c.9-1.72 2.588-2.667 4.472-2.667 3.491 0 4.702 1.893 4.702 5.278v5.963h1.829v2.58H59.94v-2.58h1.688v-5.823c0-1.374-.788-2.693-2.307-2.693-2.027 0-2.841 1.89-2.841 3.61v4.906h1.688v2.58h-7.261v-2.58m32.612 0h1.829v-8.26h-1.83v-2.58h5.318v2.609h.058c.788-1.72 2.108-3.01 4.052-3.01.532 0 1.095.056 1.602.173v3.124c-.533-.144-1.125-.144-1.689-.144-2.476 0-3.629 1.864-3.77 4.188v3.9h2.252v2.58H83.52v-2.58m29.697-8.26h-3.52v6.481c0 .976 0 2.034 1.102 2.034 1.067 0 1.124-1.374 1.124-1.978h2.252c.112 3.071-.986 4.704-4.138 4.704-2.505 0-4.081-1.835-4.081-3.842v-7.4h-2.108V6.136h2.108v-2.61l3.741-1.348v3.958h3.52v2.58m18.992 8.26h2.393v-8.26h-2.393v-2.58h2.393V4.645c0-2.151.929-4.645 5.18-4.645.816 0 1.687.144 2.501.258v2.837c-.42-.115-.842-.229-1.32-.229-1.49 0-2.617.173-2.617 2.21v1.06h2.954v2.58h-2.954v8.26h2.39v2.58h-8.527v-2.58m25.654 0h1.829V2.98h-1.83V.401h5.571v16.575h1.832v2.58h-7.402v-2.58" transform="translate(-747.000000, -190.000000) translate(747.000000, 190.000000) translate(6.000000, 23.000000) translate(60.734958, 4.756559)"/>
                        </g>
                    </g>
                </g>
            </g>
        </g>
    </g>
</svg>
