<?xml version="1.0" encoding="UTF-8"?>
<svg width="160px" height="160px" viewBox="0 0 160 160" version="1.1" xmlns="http://www.w3.org/2000/svg" xmlns:xlink="http://www.w3.org/1999/xlink">
    <title>Group 2</title>
    <defs>
        <path d="M160,129.766234 C159.974288,146.453095 146.609492,159.973988 130.115278,160 L43.6363636,160 C48.9235046,153.573396 53.8398205,146.843604 58.3608152,139.844156 L130.115278,139.844156 C135.616903,139.844156 140.076852,135.332116 140.076852,129.766234 C140.076852,124.200351 135.616903,119.688312 130.115278,119.688312 L100.230556,119.688312 C83.7256797,119.688312 70.3458339,106.152193 70.3458339,89.4545455 C70.3458339,72.7568974 83.7256797,59.2207792 100.230556,59.2207792 L114.313731,59.2207792 C119.238128,66.2072968 124.512186,72.9346828 130.115278,79.3766234 L100.230556,79.3766234 C94.7289306,79.3766234 90.268982,83.8886628 90.268982,89.4545455 C90.268982,95.0204281 94.7289306,99.5324675 100.230556,99.5324675 L130.115278,99.5324675 C146.609492,99.5584798 159.974288,113.079372 160,129.766234 L160,129.766234 Z" id="path-1"></path>
        <filter x="-3.0%" y="-3.5%" width="106.0%" height="106.9%" filterUnits="objectBoundingBox" id="filter-2">
            <feGaussianBlur stdDeviation="2" in="SourceAlpha" result="shadowBlurInner1"></feGaussianBlur>
            <feOffset dx="1" dy="3" in="shadowBlurInner1" result="shadowOffsetInner1"></feOffset>
            <feComposite in="shadowOffsetInner1" in2="SourceAlpha" operator="arithmetic" k2="-1" k3="1" result="shadowInnerInner1"></feComposite>
            <feColorMatrix values="0 0 0 0 0   0 0 0 0 0   0 0 0 0 0  0 0 0 0.5 0" type="matrix" in="shadowInnerInner1"></feColorMatrix>
        </filter>
        <path d="M30,80 C13.4314575,80 0,93.4314575 0,110 C0,126.5625 30,160 30,160 C30,160 60,126.5625 60,110 C60,93.4314575 46.5685425,80 30,80 Z M30,120 C24.4771525,120 20,115.522847 20,110 C20,104.477153 24.4771525,100 30,100 C35.5228475,100 40,104.477153 40,110 C40,115.522847 35.5228475,120 30,120 Z M130,0 C113.431458,0 100,13.4314575 100,30 C100,46.5625 130,80 130,80 C130,80 160,46.5625 160,30 C160,13.4314575 146.568542,0 130,0 Z M130,40 C124.477153,40 120,35.5228475 120,30 C120,24.4771525 124.477153,20 130,20 C135.522847,20 140,24.4771525 140,30 C140,35.5228475 135.522847,40 130,40 L130,40 Z" id="path-3"></path>
        <filter x="-2.2%" y="-2.2%" width="104.4%" height="104.4%" filterUnits="objectBoundingBox" id="filter-4">
            <feGaussianBlur stdDeviation="2" in="SourceAlpha" result="shadowBlurInner1"></feGaussianBlur>
            <feOffset dx="1" dy="3" in="shadowBlurInner1" result="shadowOffsetInner1"></feOffset>
            <feComposite in="shadowOffsetInner1" in2="SourceAlpha" operator="arithmetic" k2="-1" k3="1" result="shadowInnerInner1"></feComposite>
            <feColorMatrix values="0 0 0 0 0   0 0 0 0 0   0 0 0 0 0  0 0 0 0.5 0" type="matrix" in="shadowInnerInner1"></feColorMatrix>
        </filter>
    </defs>
    <g id="Single-page" stroke="none" stroke-width="1" fill="none" fill-rule="evenodd">
        <g id="01-Improve---acop11---single-page-04---desktop-large" transform="translate(-1134.000000, -973.000000)" fill-rule="nonzero">
            <g id="Group-2" transform="translate(1214.000000, 1053.000000) scale(-1, 1) translate(-1214.000000, -1053.000000) translate(1134.000000, 973.000000)">
                <g id="Path" opacity="0.596289063">
                    <use fill="#FFFFFF" xlink:href="#path-1"></use>
                    <use fill="black" fill-opacity="1" filter="url(#filter-2)" xlink:href="#path-1"></use>
                </g>
                <g id="Shape">
                    <use fill="#FFFFFF" xlink:href="#path-3"></use>
                    <use fill="black" fill-opacity="1" filter="url(#filter-4)" xlink:href="#path-3"></use>
                </g>
            </g>
        </g>
    </g>
</svg>