<?xml version="1.0" encoding="UTF-8"?>
<svg width="123px" height="123px" viewBox="0 0 123 123" version="1.1" xmlns="http://www.w3.org/2000/svg" xmlns:xlink="http://www.w3.org/1999/xlink">
    <title>Group 15</title>
    <defs>
        <radialGradient cx="50%" cy="50%" fx="50%" fy="50%" r="50%" id="radialGradient-1">
            <stop stop-color="#000000" offset="2%"></stop>
            <stop stop-color="#FFFFFF" offset="100%"></stop>
        </radialGradient>
        <linearGradient x1="85.3483131%" y1="85.3785009%" x2="14.6531451%" y2="14.6833321%" id="linearGradient-2">
            <stop stop-color="#C5CBCC" offset="0%"></stop>
            <stop stop-color="#D7DBDC" offset="9%"></stop>
            <stop stop-color="#E9EBEC" offset="21%"></stop>
            <stop stop-color="#F6F7F7" offset="36%"></stop>
            <stop stop-color="#FDFDFD" offset="56%"></stop>
            <stop stop-color="#FFFFFF" offset="100%"></stop>
        </linearGradient>
        <linearGradient x1="85.3670473%" y1="85.3996737%" x2="14.6492659%" y2="14.6982055%" id="linearGradient-3">
            <stop stop-color="#FFFFFF" offset="0%"></stop>
            <stop stop-color="#FDFDFD" offset="50%"></stop>
            <stop stop-color="#F6F7F7" offset="73%"></stop>
            <stop stop-color="#E9ECEC" offset="89%"></stop>
            <stop stop-color="#DCE0E1" offset="100%"></stop>
        </linearGradient>
        <path d="M60.1999399,83.1124869 C64.5968049,83.1124869 68.6655447,82.0132702 72.4061608,79.8148385 C76.1467769,77.6164067 79.1163016,74.646882 81.3147333,70.906266 C83.5131651,67.1656499 84.6123817,63.0969101 84.6123817,58.7000451 C84.6123817,54.2375562 83.5131651,50.1524097 81.3147333,46.4446055 C79.1163016,42.7368014 76.1467769,39.7836834 72.4061608,37.5852517 C68.6655447,35.3868199 64.5968049,34.2876033 60.1999399,34.2876033 C56.9843221,34.2876033 53.9327669,34.8782269 51.0452742,36.059474 C48.1577816,37.2407212 45.5984127,38.9141547 43.3671676,41.0797746 L43.3671676,41.0797746 L38.4453043,36.1579113 C37.9859299,35.6985369 37.4281197,35.6000996 36.7718708,35.8625995 C36.1156218,36.1250994 35.7874981,36.6172857 35.7874981,37.3391585 L35.7874981,37.3391585 L35.7874981,51.612562 C35.7874981,52.0719364 35.935154,52.4492787 36.2304658,52.7445905 C36.5257776,53.0399023 36.90312,53.1875582 37.3624944,53.1875582 L37.3624944,53.1875582 L51.6358978,53.1875582 C52.3577706,53.1875582 52.8499569,52.8594345 53.1124568,52.2031856 C53.3749567,51.5469366 53.2765194,50.9891264 52.817145,50.529752 L52.817145,50.529752 L47.7968445,45.5094515 C49.4374661,43.9344553 51.3241793,42.7203962 53.4569872,41.8672727 C55.5897952,41.0141492 57.8374456,40.5875882 60.1999399,40.5875882 C63.4811816,40.5875882 66.5163316,41.3914931 69.305387,42.9993012 C72.0944423,44.6071094 74.2928756,46.8055427 75.9006837,49.594598 C77.5084919,52.3836534 78.3123967,55.4188034 78.3123967,58.7000451 C78.3123967,61.9812867 77.5084919,65.0164368 75.9006837,67.8054921 C74.2928756,70.5945475 72.0944423,72.7929807 69.305387,74.4007889 C66.5163316,76.008597 63.4811816,76.8125019 60.1999399,76.8125019 C55.9999494,76.8125019 52.2593333,75.5000055 48.9780917,72.8750113 C48.5187173,72.5468875 47.9773123,72.3992317 47.3538768,72.4320436 C46.7304413,72.4648555 46.2218482,72.6781367 45.8280992,73.0718858 L45.8280992,73.0718858 L44.7452893,74.1546957 C44.220291,74.679694 43.9741979,75.2867243 44.0070098,75.9757851 C44.0398217,76.664846 44.3187283,77.2390629 44.8437265,77.6984373 C47.0093464,79.4046827 49.4046527,80.7335858 52.0296469,81.6851465 C54.6546411,82.6367072 57.3780711,83.1124869 60.1999399,83.1124869 Z M63.4483697,66.8703381 C63.9733679,67.2640871 64.5639915,67.411743 65.2202404,67.3133058 C65.8764894,67.2148685 66.4014876,66.90315 66.7952367,66.3781518 L66.7952367,66.3781518 L67.7796093,65.1969046 C68.1733584,64.6719063 68.337421,64.0812827 68.2717957,63.4250338 C68.2061703,62.7687849 67.9108585,62.2437866 67.3858603,61.8500376 L67.3858603,61.8500376 L63.3499324,58.7000451 L63.3499324,48.4625695 C63.3499324,47.8063205 63.120246,47.2485104 62.6608716,46.789136 C62.2014971,46.3297616 61.643687,46.1000751 60.987438,46.1000751 L60.987438,46.1000751 L59.4124418,46.1000751 C58.7561929,46.1000751 58.1983827,46.3297616 57.7390083,46.789136 C57.2796339,47.2485104 57.0499474,47.8063205 57.0499474,48.4625695 L57.0499474,48.4625695 L57.0499474,61.8500376 L63.4483697,66.8703381 Z" id="path-4"></path>
        <filter x="-4.1%" y="-4.1%" width="108.2%" height="108.2%" filterUnits="objectBoundingBox" id="filter-5">
            <feGaussianBlur stdDeviation="1.5" in="SourceAlpha" result="shadowBlurInner1"></feGaussianBlur>
            <feOffset dx="0" dy="1" in="shadowBlurInner1" result="shadowOffsetInner1"></feOffset>
            <feComposite in="shadowOffsetInner1" in2="SourceAlpha" operator="arithmetic" k2="-1" k3="1" result="shadowInnerInner1"></feComposite>
            <feColorMatrix values="0 0 0 0 0   0 0 0 0 0   0 0 0 0 0  0 0 0 0.5 0" type="matrix" in="shadowInnerInner1"></feColorMatrix>
        </filter>
    </defs>
    <g id="Single-page" stroke="none" stroke-width="1" fill="none" fill-rule="evenodd">
        <g id="01-Improve---acop11---single-page-04---desktop-large" transform="translate(-1000.000000, -4856.000000)" fill-rule="nonzero">
            <g id="Layer_3-Copy-6" transform="translate(1000.000000, 4856.000000)">
                <path d="M117.135002,58.685 C117.126716,90.8177342 91.0727374,116.860521 58.9400026,116.855 C26.8072677,116.849477 0.762241604,90.7977365 0.765002148,58.6650013 C0.767762692,26.5322661 26.8172647,0.485 58.95,0.485 C74.3842207,0.485 89.1860768,6.61724627 100.098312,17.5322949 C111.010548,28.4473435 117.138979,43.2507798 117.135002,58.685 Z" id="Path" fill="#00BDED"></path>
                <circle id="Oval" fill="url(#radialGradient-1)" style="mix-blend-mode: multiply;" cx="65.355" cy="65.675" r="56.865"></circle>
                <path d="M106.665002,58.985 C106.671067,78.1578743 95.1262757,95.4462373 77.4145907,102.787583 C59.7029058,110.128929 39.3128609,106.07729 25.7534455,92.5221651 C12.1940301,78.9670407 8.13593729,58.5782792 15.4716769,40.8642716 C22.8074166,23.1502639 40.0921248,11.5999976 59.265,11.5999976 C71.8348821,11.5960209 83.8912962,16.5865982 92.7809519,25.4734408 C101.670608,34.3602834 106.665002,46.4151173 106.665002,58.985 Z" id="Path" fill="url(#linearGradient-2)"></path>
                <path d="M105.24,58.985 C105.24,84.3762914 84.6562914,104.96 59.265,104.96 C33.8737086,104.96 13.29,84.3762914 13.29,58.985 C13.29,33.5937086 33.8737086,13.01 59.265,13.01 C84.6562914,13.01 105.24,33.5937086 105.24,58.985 L105.24,58.985 Z" id="Path" fill="url(#linearGradient-3)"></path>
                <g id="">
                    <use fill="#00BDED" xlink:href="#path-4"></use>
                    <use fill="black" fill-opacity="1" filter="url(#filter-5)" xlink:href="#path-4"></use>
                </g>
            </g>
        </g>
    </g>
</svg>