<?xml version="1.0" encoding="UTF-8"?>
<svg width="123px" height="123px" viewBox="0 0 123 123" version="1.1" xmlns="http://www.w3.org/2000/svg" xmlns:xlink="http://www.w3.org/1999/xlink">
    <title>Group 14</title>
    <defs>
        <radialGradient cx="50%" cy="50%" fx="50%" fy="50%" r="50%" id="radialGradient-1">
            <stop stop-color="#000000" offset="2%"></stop>
            <stop stop-color="#FFFFFF" offset="100%"></stop>
        </radialGradient>
        <linearGradient x1="85.3483131%" y1="85.3785009%" x2="14.6531451%" y2="14.6833321%" id="linearGradient-2">
            <stop stop-color="#C5CBCC" offset="0%"></stop>
            <stop stop-color="#D7DBDC" offset="9%"></stop>
            <stop stop-color="#E9EBEC" offset="21%"></stop>
            <stop stop-color="#F6F7F7" offset="36%"></stop>
            <stop stop-color="#FDFDFD" offset="56%"></stop>
            <stop stop-color="#FFFFFF" offset="100%"></stop>
        </linearGradient>
        <linearGradient x1="85.3670473%" y1="85.3996737%" x2="14.6492659%" y2="14.6982055%" id="linearGradient-3">
            <stop stop-color="#FFFFFF" offset="0%"></stop>
            <stop stop-color="#FDFDFD" offset="50%"></stop>
            <stop stop-color="#F6F7F7" offset="73%"></stop>
            <stop stop-color="#E9ECEC" offset="89%"></stop>
            <stop stop-color="#DCE0E1" offset="100%"></stop>
        </linearGradient>
        <path d="M58.3000987,63.5000064 C58.3000987,57.8753907 61.6405168,53.0431279 66.4001338,50.9153167 L66.4001338,49.7500048 L54.9250868,49.7500048 C53.8080526,49.7467009 52.9033235,48.8252213 52.9000796,47.6875061 L52.9000796,36.0000064 L36.0250199,36.0000064 C35.4875422,35.9986392 34.9716897,36.2154964 34.5916344,36.6025881 C34.2115791,36.9896799 33.9986639,37.515083 34.0000063,38.0625117 L34.0000063,77.9374883 C33.9986639,78.484917 34.2115791,79.0103201 34.5916344,79.3974119 C34.9716897,79.7845036 35.4875422,80.0013608 36.0250199,79.9999936 L64.3751203,79.9999936 C64.9125979,80.0013608 65.4284504,79.7845036 65.8085057,79.3974119 C66.188561,79.0103201 66.4014762,78.484917 66.4001338,77.9374883 L66.4001338,76.0846769 C61.6405168,73.957725 58.3000987,69.1246028 58.3000987,63.5000064 Z M66.4001274,46.475788 C66.3999488,45.9310935 66.187522,45.4087391 65.8095003,45.0234451 L57.5491586,36.6015751 C57.1683809,36.2150885 56.6523477,35.9986703 56.1147785,36.0000067 L55.6000892,36.0000067 L55.6000892,47.0000067 L66.4001274,47.0000067 L66.4001274,46.475788 Z M87.6044838,75.7082709 L81.0729919,69.0558529 C82.0633358,67.3774777 82.5909256,65.4581307 82.6001848,63.5000032 C82.6001848,57.4248681 77.764843,52.5000032 71.8001465,52.5000032 C65.8354501,52.5000032 61.0001083,57.4248681 61.0001083,63.5000032 C61.0001083,69.5751255 65.8354501,74.4999903 71.8001465,74.4999903 C73.7998411,74.4999903 75.6485039,73.9087407 77.2550096,72.9436631 L83.7865015,79.5969404 C84.0396854,79.8548707 84.3831111,79.9997794 84.741208,79.9997794 C85.0993049,79.9997794 85.4427306,79.8548707 85.6959145,79.5969404 L87.6044838,77.6530353 C87.8577254,77.395164 88,77.04538 88,76.6806531 C88,76.3159262 87.8577254,75.9661422 87.6044838,75.7082709 Z M71.8001465,69 C68.8177983,69 66.4001274,66.5375611 66.4001274,63.5 C66.4001274,60.4624324 68.8177983,58 71.8001465,58 C74.7824948,58 77.2001657,60.4624324 77.2001657,63.5 C77.2001657,66.5375611 74.7824948,69 71.8001465,69 Z" id="path-4"></path>
        <filter x="-3.7%" y="-4.5%" width="107.4%" height="109.1%" filterUnits="objectBoundingBox" id="filter-5">
            <feGaussianBlur stdDeviation="1.5" in="SourceAlpha" result="shadowBlurInner1"></feGaussianBlur>
            <feOffset dx="0" dy="1" in="shadowBlurInner1" result="shadowOffsetInner1"></feOffset>
            <feComposite in="shadowOffsetInner1" in2="SourceAlpha" operator="arithmetic" k2="-1" k3="1" result="shadowInnerInner1"></feComposite>
            <feColorMatrix values="0 0 0 0 0   0 0 0 0 0   0 0 0 0 0  0 0 0 0.5 0" type="matrix" in="shadowInnerInner1"></feColorMatrix>
        </filter>
    </defs>
    <g id="Single-page" stroke="none" stroke-width="1" fill="none" fill-rule="evenodd">
        <g id="01-Improve---acop11---single-page-04---desktop-large" transform="translate(-560.000000, -4856.000000)" fill-rule="nonzero">
            <g id="Layer_3-Copy" transform="translate(560.000000, 4856.000000)">
                <path d="M117.135002,58.685 C117.126716,90.8177342 91.0727374,116.860521 58.9400026,116.855 C26.8072677,116.849477 0.762241604,90.7977365 0.765002148,58.6650013 C0.767762692,26.5322661 26.8172647,0.485 58.95,0.485 C74.3842207,0.485 89.1860768,6.61724627 100.098312,17.5322949 C111.010548,28.4473435 117.138979,43.2507798 117.135002,58.685 Z" id="Path" fill="#00BDED"></path>
                <circle id="Oval" fill="url(#radialGradient-1)" style="mix-blend-mode: multiply;" cx="65.355" cy="65.675" r="56.865"></circle>
                <path d="M106.665002,58.985 C106.671067,78.1578743 95.1262757,95.4462373 77.4145907,102.787583 C59.7029058,110.128929 39.3128609,106.07729 25.7534455,92.5221651 C12.1940301,78.9670407 8.13593729,58.5782792 15.4716769,40.8642716 C22.8074166,23.1502639 40.0921248,11.5999976 59.265,11.5999976 C71.8348821,11.5960209 83.8912962,16.5865982 92.7809519,25.4734408 C101.670608,34.3602834 106.665002,46.4151173 106.665002,58.985 Z" id="Path" fill="url(#linearGradient-2)"></path>
                <path d="M105.24,58.985 C105.24,84.3762914 84.6562914,104.96 59.265,104.96 C33.8737086,104.96 13.29,84.3762914 13.29,58.985 C13.29,33.5937086 33.8737086,13.01 59.265,13.01 C84.6562914,13.01 105.24,33.5937086 105.24,58.985 L105.24,58.985 Z" id="Path" fill="url(#linearGradient-3)"></path>
                <g id="Shape">
                    <use fill="#00BDED" xlink:href="#path-4"></use>
                    <use fill="black" fill-opacity="1" filter="url(#filter-5)" xlink:href="#path-4"></use>
                </g>
            </g>
        </g>
    </g>
</svg>